<svg width="22" height="22" viewBox="0 0 22 22" fill="none" xmlns="http://www.w3.org/2000/svg">
<g clip-path="url(#clip0_14_179)">
<mask id="mask0_14_179" style="mask-type:luminance" maskUnits="userSpaceOnUse" x="0" y="0" width="22" height="22">
<path d="M0 0H21.7965V21.7965H0V0Z" fill="white"/>
</mask>
<g mask="url(#mask0_14_179)">
<path d="M10.8983 0C4.88853 0 0 4.88853 0 10.8983C0 16.908 4.88853 21.7965 10.8983 21.7965C16.9069 21.7965 21.7965 16.908 21.7965 10.8983C21.7965 4.88853 16.9069 0 10.8983 0ZM10.8983 20.2213C5.75808 20.2213 1.57525 16.0385 1.57525 10.8983C1.57525 5.75808 5.75808 1.57525 10.8983 1.57525C16.0385 1.57525 20.2202 5.75808 20.2202 10.8983C20.2202 16.0385 16.0385 20.2213 10.8983 20.2213Z" fill="url(#paint0_linear_14_179)"/>
</g>
<path d="M14.0306 13.6033L11.6864 12.2776V5.77736C11.6864 5.34258 11.333 4.9892 10.8983 4.9892C10.4635 4.9892 10.1101 5.34258 10.1101 5.77736V12.7359C10.1101 12.7455 10.1122 12.7541 10.1133 12.7637C10.1144 12.7937 10.1176 12.8226 10.1219 12.8526C10.1251 12.8751 10.1283 12.8976 10.1337 12.9201C10.1401 12.9468 10.1487 12.9715 10.1583 12.9972C10.1658 13.0207 10.1733 13.0432 10.184 13.0646C10.1947 13.0893 10.2086 13.1118 10.2215 13.1343C10.2343 13.1557 10.2461 13.1749 10.259 13.1953C10.275 13.2167 10.2932 13.2371 10.3104 13.2574C10.3275 13.2745 10.3425 13.2927 10.3607 13.3099C10.3789 13.327 10.3982 13.342 10.4196 13.3581C10.441 13.3752 10.4624 13.3913 10.486 13.4052C10.4946 13.4105 10.501 13.418 10.5106 13.4223L13.2553 14.9751C13.3784 15.0447 13.5112 15.0768 13.6429 15.0768C13.9171 15.0768 14.1837 14.9333 14.3293 14.6774C14.5424 14.2972 14.4097 13.8175 14.0306 13.6033Z" fill="url(#paint1_linear_14_179)"/>
<mask id="mask1_14_179" style="mask-type:luminance" maskUnits="userSpaceOnUse" x="10" y="11" width="2" height="2">
<path d="M10.426 11.7292H11.3298V12.6331H10.426V11.7292Z" fill="white"/>
</mask>
<g mask="url(#mask1_14_179)">
<mask id="mask2_14_179" style="mask-type:luminance" maskUnits="userSpaceOnUse" x="10" y="11" width="2" height="2">
<path d="M10.8779 11.7292C10.6284 11.7292 10.426 11.9316 10.426 12.1812C10.426 12.4307 10.6284 12.6331 10.8779 12.6331C11.1274 12.6331 11.3298 12.4307 11.3298 12.1812C11.3298 11.9316 11.1274 11.7292 10.8779 11.7292Z" fill="white"/>
</mask>
<g mask="url(#mask2_14_179)">
<path d="M10.426 11.7292H11.3298V12.6331H10.426V11.7292Z" fill="url(#paint2_linear_14_179)"/>
</g>
</g>
</g>
<defs>
<linearGradient id="paint0_linear_14_179" x1="10.8983" y1="0" x2="10.8983" y2="21.7965" gradientUnits="userSpaceOnUse">
<stop stop-color="#FFA600"/>
<stop offset="1" stop-color="#C93400"/>
</linearGradient>
<linearGradient id="paint1_linear_14_179" x1="12.2705" y1="4.9892" x2="12.2705" y2="15.0768" gradientUnits="userSpaceOnUse">
<stop stop-color="#FFA600"/>
<stop offset="1" stop-color="#C93400"/>
</linearGradient>
<linearGradient id="paint2_linear_14_179" x1="10.8779" y1="11.7292" x2="10.8779" y2="12.6331" gradientUnits="userSpaceOnUse">
<stop stop-color="#FFA600"/>
<stop offset="1" stop-color="#C93400"/>
</linearGradient>
<clipPath id="clip0_14_179">
<rect width="22" height="22" fill="white"/>
</clipPath>
</defs>
</svg>
