<svg width="26" height="23" viewBox="0 0 26 23" fill="none" xmlns="http://www.w3.org/2000/svg">
<path d="M8.12221 0.33017H17.0176C19.2533 0.33017 21.2838 1.25131 22.7529 2.73725C24.2254 4.22318 25.1398 6.27054 25.1398 8.52297C25.1398 10.7754 24.2254 12.8261 22.7529 14.3087C21.2804 15.7913 19.2499 16.7124 17.0176 16.7124H13.2658L5.9908 22.2023C5.73194 22.3973 5.3655 22.3469 5.17051 22.0846C5.09319 21.9771 5.05285 21.8527 5.05285 21.7283V16.0972C3.61734 15.5022 2.38691 14.5037 1.49938 13.243C0.558065 11.9083 0 10.2779 0 8.51961C0 6.26718 0.911059 4.21982 2.38354 2.73389C3.85603 1.25131 5.88658 0.33017 8.12221 0.33017ZM6.56231 11.3402C6.23621 11.3402 5.97063 11.0746 5.97063 10.7452C5.97063 10.4157 6.23285 10.1501 6.56231 10.1501H12.0488C12.3749 10.1501 12.6405 10.4157 12.6405 10.7452C12.6405 11.0746 12.3783 11.3402 12.0488 11.3402H6.56231ZM17.058 11.3402C16.7319 11.3402 16.4663 11.0746 16.4663 10.7452C16.4663 10.4157 16.7319 10.1501 17.058 10.1501H18.5809C18.9036 10.1501 19.1692 10.4157 19.1692 10.7452C19.1692 11.0746 18.9036 11.3402 18.5809 11.3402H17.058ZM6.56231 6.89584C6.23621 6.89584 5.97063 6.63026 5.97063 6.3008C5.97063 5.97134 6.23285 5.70575 6.56231 5.70575H18.5843C18.907 5.70575 19.1726 5.97134 19.1726 6.3008C19.1726 6.63026 18.907 6.89584 18.5843 6.89584H6.56231ZM17.0176 1.52026H8.12221C6.21268 1.52026 4.47797 2.30693 3.21728 3.57771C1.95995 4.84848 1.17664 6.59664 1.17664 8.52297C1.17664 10.0257 1.65066 11.4175 2.45414 12.5605C3.27443 13.7271 4.44099 14.6314 5.79917 15.1189C6.04459 15.1895 6.22613 15.4215 6.22613 15.6904V20.5449L12.6775 15.677C12.7817 15.5828 12.9196 15.5257 13.0708 15.5257H17.0143C18.9238 15.5257 20.6585 14.739 21.9158 13.4682C23.1732 12.1975 23.9565 10.4493 23.9565 8.52297C23.9565 6.59664 23.1765 4.84848 21.9158 3.57771C20.6585 2.30693 18.9204 1.52026 17.0143 1.52026H17.0176Z" fill="url(#paint0_linear_36_152)"/>
<defs>
<linearGradient id="paint0_linear_36_152" x1="12.5699" y1="0.33017" x2="12.5699" y2="22.3207" gradientUnits="userSpaceOnUse">
<stop stop-color="#FFA600"/>
<stop offset="1" stop-color="#C93400"/>
</linearGradient>
</defs>
</svg>
