<svg width="25" height="34" viewBox="0 0 25 34" fill="none" xmlns="http://www.w3.org/2000/svg">
<path d="M16.9196 23.0151V22.908C16.9196 22.2869 16.7972 21.6872 16.5555 21.1212C16.323 20.5735 15.9925 20.0809 15.5672 19.6587C15.142 19.2365 14.6494 18.906 14.1017 18.6735C13.9977 18.6276 13.8875 18.5878 13.7804 18.5511C13.9763 18.4318 14.1568 18.2911 14.322 18.1289C14.5821 17.8688 14.7901 17.5659 14.9308 17.2263C15.0777 16.8745 15.1542 16.5043 15.1542 16.1218C15.1542 15.7394 15.0808 15.3661 14.9308 15.0173C14.787 14.6777 14.5821 14.3748 14.322 14.1147C14.0619 13.8546 13.756 13.6496 13.4163 13.5089C13.0645 13.362 12.6912 13.2856 12.3057 13.2856C11.9202 13.2856 11.5469 13.359 11.1951 13.5089C10.8555 13.6496 10.5526 13.8577 10.2894 14.1147C10.0263 14.3717 9.82131 14.6777 9.68057 15.0173C9.53371 15.3661 9.45722 15.7394 9.45722 16.1218C9.45722 16.5043 9.53065 16.8775 9.68057 17.2263C9.82437 17.5659 10.0294 17.8688 10.2894 18.1289C10.4547 18.2911 10.6352 18.4318 10.831 18.5511C10.7239 18.5878 10.6168 18.6276 10.5097 18.6735C9.96206 18.906 9.4664 19.2365 9.04418 19.6587C8.62195 20.0809 8.28846 20.5705 8.05593 21.1212C7.81422 21.6872 7.69183 22.29 7.69183 22.908V23.0151C7.69183 23.3884 8.00085 23.6943 8.37412 23.6943H16.2342C16.6106 23.6943 16.9196 23.3884 16.9196 23.0151ZM10.7514 17.6669C10.3384 17.2539 10.1089 16.7031 10.1089 16.1187C10.1089 15.5344 10.3384 14.9836 10.7514 14.5706C11.1645 14.1575 11.7183 13.9281 12.3057 13.9281C12.8932 13.9281 13.4439 14.1545 13.86 14.5706C14.2761 14.9836 14.5025 15.5344 14.5025 16.1187C14.5025 16.7031 14.2761 17.2539 13.86 17.6669C13.4469 18.0799 12.8932 18.3094 12.3057 18.3094C11.7183 18.3094 11.1645 18.083 10.7514 17.6669ZM8.34353 23.0151V22.908C8.34353 22.3756 8.44755 21.8585 8.65561 21.3721C8.85754 20.9009 9.14208 20.4787 9.50618 20.1176C9.87027 19.7535 10.2925 19.469 10.7637 19.2701C11.2532 19.0651 11.7703 18.958 12.3057 18.958C12.8411 18.958 13.3582 19.0621 13.8477 19.2701C14.3189 19.469 14.7442 19.7535 15.1052 20.1176C15.4663 20.4817 15.7569 20.9009 15.9558 21.3721C16.1608 21.8585 16.2679 22.3756 16.2679 22.908V23.0151C16.2679 23.0334 16.2526 23.0457 16.2373 23.0457H8.37718C8.35883 23.0457 8.34659 23.0304 8.34659 23.0151H8.34353Z" fill="url(#paint0_linear_51_3)"/>
<path d="M7.53888 23.37C7.53888 23.1925 7.39508 23.0457 7.21457 23.0457H2.65882C2.64046 23.0457 2.62823 23.0304 2.62823 23.0151V22.9539C2.62823 22.4766 2.72307 22.0177 2.90665 21.5832C3.08411 21.164 3.33805 20.7877 3.66237 20.4634C3.98669 20.1391 4.36302 19.8851 4.78524 19.7107C5.21971 19.5271 5.68477 19.4323 6.16206 19.4323C6.86883 19.4323 7.55112 19.6403 8.13551 20.035C8.28543 20.1329 8.48736 20.0962 8.58833 19.9463C8.68929 19.7964 8.64952 19.5944 8.4996 19.4965C8.20588 19.2977 7.8938 19.1416 7.56336 19.0254C7.7194 18.9275 7.8632 18.8081 7.99782 18.6766C8.48736 18.187 8.75966 17.5384 8.75966 16.8469C8.75966 16.1555 8.48736 15.5068 7.99782 15.0173C7.50829 14.5308 6.85659 14.2616 6.16206 14.2616C5.46753 14.2616 4.81584 14.5308 4.3263 15.0173C3.83677 15.5068 3.56752 16.1555 3.56752 16.8469C3.56752 17.5384 3.83677 18.1901 4.3263 18.6766C4.46093 18.8081 4.60473 18.9275 4.76077 19.0254C4.68734 19.0529 4.61085 19.0804 4.53436 19.1141C4.03564 19.3221 3.58894 19.625 3.20343 20.0075C2.81792 20.3899 2.51808 20.8366 2.30697 21.3323C2.08974 21.8463 1.97653 22.394 1.97653 22.9569V23.0181C1.97653 23.3945 2.28555 23.6974 2.65882 23.6974H7.21457C7.39508 23.6974 7.53888 23.5536 7.53888 23.3731V23.37ZM4.2131 16.8439C4.2131 16.3268 4.41809 15.8373 4.78218 15.4732C5.14934 15.106 5.63887 14.9041 6.159 14.9041C6.67914 14.9041 7.16867 15.106 7.53582 15.4732C7.90297 15.8403 8.10491 16.3268 8.10491 16.8439C8.10491 17.3609 7.90297 17.8505 7.53582 18.2146C7.16867 18.5787 6.67914 18.7806 6.159 18.7806C5.63887 18.7806 5.14934 18.5787 4.78218 18.2146C4.41503 17.8474 4.2131 17.3609 4.2131 16.8439Z" fill="url(#paint1_linear_51_3)"/>
<path d="M21.3774 20.0044C20.9919 19.622 20.5452 19.3221 20.0496 19.111C19.9731 19.0804 19.8996 19.0498 19.8231 19.0223C19.9792 18.9244 20.123 18.8081 20.2576 18.6735C20.7471 18.187 21.0164 17.5353 21.0164 16.8439C21.0164 16.1524 20.7441 15.5007 20.2576 15.0142C19.7681 14.5247 19.1164 14.2554 18.4188 14.2554C17.7212 14.2554 17.0726 14.5247 16.583 15.0142C16.0935 15.5007 15.8242 16.1524 15.8242 16.8439C15.8242 17.5353 16.0966 18.187 16.583 18.6735C16.7177 18.8081 16.8645 18.9244 17.0175 19.0223C16.6962 19.1386 16.3903 19.2885 16.1027 19.4782C15.9558 19.5791 15.913 19.778 16.0139 19.9279C16.1119 20.0778 16.3138 20.1176 16.4637 20.0197C17.045 19.6342 17.7181 19.4323 18.4188 19.4323C18.8961 19.4323 19.3581 19.5241 19.7956 19.7076C20.2178 19.8851 20.5942 20.139 20.9185 20.4603C21.2428 20.7846 21.4998 21.1609 21.6742 21.5801C21.8578 22.0146 21.9526 22.4735 21.9526 22.9508V23.012C21.9526 23.0304 21.9373 23.0426 21.922 23.0426H17.4275C17.247 23.0426 17.1032 23.1864 17.1032 23.3669C17.1032 23.5474 17.247 23.6912 17.4275 23.6912H21.9251C22.3014 23.6912 22.6074 23.3853 22.6074 23.012V22.9508C22.6074 22.3878 22.4972 21.8402 22.28 21.3262C22.0689 20.8336 21.766 20.3838 21.3835 20.0014L21.3774 20.0044ZM18.4188 18.7836C17.8987 18.7836 17.4091 18.5817 17.045 18.2146C16.6779 17.8474 16.4759 17.3609 16.4759 16.8439C16.4759 16.3268 16.6779 15.8372 17.045 15.4732C17.4122 15.106 17.9017 14.9041 18.4188 14.9041C18.9359 14.9041 19.4285 15.106 19.7956 15.4732C20.1628 15.8372 20.3647 16.3268 20.3647 16.8439C20.3647 17.3609 20.1628 17.8505 19.7956 18.2146C19.4285 18.5817 18.9389 18.7836 18.4188 18.7836Z" fill="url(#paint2_linear_51_3)"/>
<path d="M3.9683 5.45605L3.89793 5.52336L3.83062 5.45605C3.55526 5.18068 3.19422 5.03076 2.80566 5.03076C2.41709 5.03076 2.05299 5.18068 1.78069 5.45605C1.21466 6.01901 1.21466 6.93383 1.78069 7.4968L3.66846 9.37845C3.72965 9.43964 3.81226 9.4733 3.90099 9.4733C3.98972 9.4733 4.06927 9.43964 4.13046 9.37845L6.01823 7.4968C6.2936 7.22449 6.44352 6.86346 6.44352 6.47795C6.44352 6.09244 6.2936 5.72835 6.01823 5.45605C5.45527 4.89308 4.53739 4.89308 3.97136 5.45605H3.9683ZM5.55929 7.03786L3.90099 8.69004L2.24269 7.03786C1.93061 6.72884 1.93061 6.22401 2.24269 5.91193C2.39261 5.76201 2.59454 5.6794 2.80566 5.6794C3.01677 5.6794 3.2187 5.76201 3.36862 5.91193L3.66846 6.20871C3.79697 6.33415 4.00196 6.33415 4.1274 6.20871L4.42724 5.91193C4.57716 5.76201 4.7791 5.6794 4.99021 5.6794C5.20132 5.6794 5.40326 5.76201 5.55624 5.91193C5.70922 6.06185 5.78876 6.26378 5.78876 6.47489C5.78876 6.686 5.70616 6.88794 5.55624 7.03786H5.55929Z" fill="url(#paint3_linear_51_3)"/>
<path d="M3.89793 10.7461C4.14576 10.7461 4.39664 10.7216 4.63835 10.6757L6.10696 13.2213C6.16509 13.3253 6.27524 13.3835 6.38844 13.3835C6.4221 13.3835 6.45881 13.3773 6.49247 13.3651C6.63933 13.3161 6.73112 13.1662 6.7097 13.0132L6.29054 9.92611C6.55978 9.71806 6.80149 9.47329 7.00648 9.20404C7.11357 9.06024 7.08603 8.85831 6.94529 8.75122C6.80149 8.64414 6.5965 8.67167 6.48941 8.81242C6.28442 9.08472 6.03659 9.32031 5.75511 9.51612C5.65414 9.58649 5.60213 9.70582 5.61742 9.82514L5.84077 11.462L5.08199 10.1433C5.01162 10.0179 4.8617 9.95671 4.7179 9.99036C4.45172 10.0607 4.17329 10.0944 3.89793 10.0944C3.03206 10.0944 2.21515 9.75783 1.60017 9.14591C0.985191 8.53705 0.648635 7.7232 0.648635 6.86039C0.648635 5.99759 0.988251 5.18373 1.60017 4.57181C2.21209 3.95989 3.029 3.62334 3.89793 3.62334C4.36605 3.62334 4.81887 3.72124 5.24109 3.91094C5.64802 4.09451 6.00905 4.35764 6.31195 4.6942C6.43128 4.82882 6.63627 4.838 6.77089 4.71867C6.90551 4.59935 6.91469 4.39435 6.79537 4.25973C6.43434 3.85893 5.99987 3.54379 5.51034 3.3235C5.00244 3.09097 4.4609 2.9747 3.89793 2.9747C3.37168 2.9747 2.86073 3.07567 2.38037 3.28066C1.91531 3.47648 1.4992 3.7549 1.14123 4.11287C0.783257 4.47084 0.501774 4.88695 0.30596 5.34895C0.100967 5.82625 0 6.33414 0 6.86039C0 7.38664 0.100967 7.89454 0.30596 8.37183C0.501774 8.83383 0.783257 9.24994 1.14123 9.60791C1.4992 9.96588 1.91531 10.2443 2.38037 10.4401C2.86378 10.6421 3.37168 10.743 3.89793 10.743V10.7461Z" fill="url(#paint4_linear_51_3)"/>
<path d="M19.0643 5.97923H19.2143C19.3948 5.97923 19.5386 5.83543 19.5386 5.65491C19.5386 5.4744 19.3948 5.3306 19.2143 5.3306H19.0643C18.8869 5.3306 18.74 5.4744 18.74 5.65491C18.74 5.83543 18.8869 5.97923 19.0643 5.97923Z" fill="url(#paint5_linear_51_3)"/>
<path d="M24.7002 5.34895C24.5044 4.88389 24.2229 4.47084 23.8649 4.11287C23.5069 3.7549 23.0908 3.47648 22.6258 3.28066C22.1454 3.07873 21.6345 2.9747 21.1082 2.9747C19.967 2.9747 18.8869 3.47342 18.1434 4.33622C18.0241 4.4739 18.0425 4.67584 18.1771 4.7921C18.3117 4.90837 18.5198 4.89307 18.636 4.75845C19.2541 4.03638 20.1536 3.62334 21.1051 3.62334C21.971 3.62334 22.7879 3.95989 23.4029 4.57181C24.0179 5.18373 24.3544 5.99759 24.3544 6.86039C24.3544 7.7232 24.0179 8.53705 23.4029 9.14897C22.7879 9.76089 21.9741 10.0974 21.1051 10.0974C20.9583 10.0974 20.8084 10.0883 20.6615 10.0699C20.5299 10.0516 20.4014 10.1158 20.3341 10.229L19.6212 11.4651L19.8079 10.0821C19.8262 9.94753 19.7559 9.8129 19.6335 9.75171C19.2021 9.53142 18.8166 9.21322 18.5198 8.82771C18.4127 8.68697 18.2077 8.65944 18.0639 8.76652C17.9201 8.87667 17.8926 9.0786 18.0027 9.2224C18.3087 9.62321 18.6972 9.96283 19.1317 10.2168L18.7523 13.0194C18.7309 13.1723 18.8227 13.3192 18.9695 13.3712C19.0032 13.3835 19.0399 13.3896 19.0736 13.3896C19.1898 13.3896 19.2969 13.3284 19.355 13.2274L20.79 10.74C20.894 10.7491 20.9981 10.7522 21.1021 10.7522C21.6283 10.7522 22.1393 10.6482 22.6196 10.4462C23.0847 10.2504 23.5008 9.96894 23.8588 9.61403C24.2168 9.25912 24.4982 8.84301 24.694 8.37795C24.896 7.8976 25 7.3897 25 6.86651C25 6.34332 24.899 5.83237 24.694 5.35507L24.7002 5.34895Z" fill="url(#paint6_linear_51_3)"/>
<path d="M23.1826 5.97923C23.3631 5.97923 23.5069 5.83543 23.5069 5.65491C23.5069 5.4744 23.3631 5.3306 23.1826 5.3306H20.2423C20.0618 5.3306 19.918 5.4744 19.918 5.65491C19.918 5.83543 20.0618 5.97923 20.2423 5.97923H23.1826Z" fill="url(#paint7_linear_51_3)"/>
<path d="M19.0643 7.18776H23.1826C23.3631 7.18776 23.5069 7.04396 23.5069 6.86344C23.5069 6.68293 23.3631 6.53912 23.1826 6.53912H19.0643C18.8869 6.53912 18.74 6.68293 18.74 6.86344C18.74 7.04396 18.8869 7.18776 19.0643 7.18776Z" fill="url(#paint8_linear_51_3)"/>
<path d="M23.1826 7.74463H23.0755C22.8981 7.74463 22.7512 7.88843 22.7512 8.06895C22.7512 8.24946 22.8981 8.39326 23.0755 8.39326H23.1826C23.3631 8.39326 23.5069 8.24946 23.5069 8.06895C23.5069 7.88843 23.3631 7.74463 23.1826 7.74463Z" fill="url(#paint9_linear_51_3)"/>
<path d="M19.0643 8.39326H22.023C22.2035 8.39326 22.3473 8.24946 22.3473 8.06895C22.3473 7.88843 22.2035 7.74463 22.023 7.74463H19.0643C18.8869 7.74463 18.74 7.88843 18.74 8.06895C18.74 8.24946 18.8869 8.39326 19.0643 8.39326Z" fill="url(#paint10_linear_51_3)"/>
<path d="M11.4184 9.26524H15.4081C15.8365 9.26524 16.1853 8.91644 16.1853 8.49116C16.1853 8.3596 16.1547 8.24027 16.0966 8.13013C16.2342 7.99245 16.3199 7.79969 16.3199 7.58858C16.3199 7.44478 16.2801 7.31016 16.2128 7.19389C16.3321 7.05621 16.4056 6.87875 16.4056 6.686C16.4056 6.56667 16.378 6.45347 16.3291 6.35556C16.4851 6.21482 16.58 6.00983 16.58 5.78647C16.58 5.35813 16.2312 5.0124 15.8028 5.0124H14.0038C14.0313 4.62077 14.0283 4.22608 13.9946 3.83751C13.9854 3.28066 13.5295 2.8309 12.9696 2.8309C12.5719 2.8309 12.2506 3.15216 12.2506 3.54991V3.7855C12.2506 4.09758 12.2109 4.40966 12.1374 4.71256C12.0548 5.03993 11.7611 5.2694 11.4215 5.2694C11.241 5.2694 11.0972 5.4132 11.0972 5.59372V8.94092C11.0972 9.11838 11.241 9.26524 11.4215 9.26524H11.4184ZM11.7458 5.87826C12.2384 5.75894 12.6392 5.37649 12.7646 4.8686C12.8534 4.51368 12.8993 4.14959 12.8993 3.7855V3.54991C12.8993 3.51013 12.9299 3.47954 12.9696 3.47954C13.1746 3.47954 13.3429 3.64781 13.3429 3.85281C13.3429 3.86199 13.3429 3.87117 13.3429 3.88034C13.3827 4.32399 13.3766 4.77681 13.3276 5.22045L13.3184 5.30306C13.3093 5.39485 13.3399 5.48663 13.401 5.55395C13.4622 5.62126 13.551 5.66103 13.6428 5.66103H15.7998C15.8701 5.66103 15.9283 5.7161 15.9283 5.78647C15.9283 5.85685 15.8701 5.91192 15.7998 5.91192H15.6254C15.4449 5.91192 15.3011 6.05572 15.3011 6.23624C15.3011 6.41675 15.4449 6.56055 15.6254 6.56055C15.6957 6.56055 15.7539 6.61563 15.7539 6.686C15.7539 6.75637 15.6957 6.81144 15.6254 6.81144H15.5428C15.3622 6.81144 15.2184 6.95524 15.2184 7.13576C15.2184 7.31627 15.3622 7.46008 15.5428 7.46008C15.6131 7.46008 15.6682 7.51821 15.6682 7.58858C15.6682 7.65895 15.6131 7.71402 15.5428 7.71402H15.4081C15.2276 7.71402 15.0808 7.85782 15.0808 8.03834C15.0808 8.21886 15.2276 8.36266 15.4081 8.36266C15.4785 8.36266 15.5336 8.41773 15.5336 8.4881C15.5336 8.55847 15.4785 8.61354 15.4081 8.61354H11.7427V5.8752L11.7458 5.87826Z" fill="url(#paint11_linear_51_3)"/>
<path d="M9.13596 9.26524H10.3965C10.577 9.26524 10.7208 9.12144 10.7208 8.94092V5.65491C10.7208 5.4744 10.577 5.3306 10.3965 5.3306H9.13596C8.95545 5.3306 8.81165 5.4744 8.81165 5.65491V8.94092C8.81165 9.12144 8.95851 9.26524 9.13596 9.26524ZM9.46028 5.97617H10.0691V8.61661H9.46028V5.97617Z" fill="url(#paint12_linear_51_3)"/>
<path d="M7.20536 8.91338C7.49297 9.56813 7.89377 10.1556 8.39861 10.6604L8.08959 13.5364C8.07735 13.6649 8.13854 13.7873 8.25175 13.8516C8.30376 13.8791 8.35883 13.8944 8.4139 13.8944C8.48122 13.8944 8.54853 13.873 8.60666 13.8332L10.9289 12.1443C11.4368 12.2851 11.963 12.3585 12.4924 12.3585C13.2725 12.3585 14.0283 12.2055 14.7381 11.9057C15.4234 11.6181 16.0415 11.202 16.5708 10.6726C17.1001 10.1464 17.5162 9.53142 17.8069 8.84607C18.1067 8.13624 18.2597 7.38358 18.2597 6.60644C18.2597 5.8293 18.1067 5.0797 17.8069 4.36987C17.5162 3.68452 17.1001 3.06954 16.5708 2.54329C16.0415 2.01704 15.4234 1.60093 14.7381 1.31027C14.0283 1.01043 13.2725 0.857452 12.4924 0.857452C11.7122 0.857452 10.9564 1.01043 10.2466 1.31027C9.56126 1.60093 8.94322 2.01398 8.4139 2.54329C7.88459 3.06954 7.46849 3.68452 7.17783 4.36987C6.87799 5.0797 6.72501 5.83236 6.72501 6.60644C6.72501 7.40805 6.89022 8.18213 7.20842 8.91032L7.20536 8.91338ZM7.77445 4.62688C8.03146 4.02108 8.40167 3.47341 8.87284 3.00529C9.34096 2.53717 9.88863 2.17002 10.5006 1.91301C11.1308 1.64683 11.8009 1.51221 12.4924 1.51221C13.1838 1.51221 13.8539 1.64683 14.4872 1.91301C15.0961 2.17002 15.6437 2.53717 16.1149 3.00529C16.5861 3.47341 16.9532 4.01802 17.2103 4.62688C17.4795 5.2541 17.6111 5.92109 17.6111 6.61256C17.6111 7.30403 17.4764 7.96796 17.2103 8.59824C16.9532 9.20404 16.583 9.75171 16.1149 10.2198C15.6468 10.6879 15.0961 11.0551 14.4872 11.3121C13.8539 11.5783 13.1838 11.7129 12.4924 11.7129C11.9722 11.7129 11.4551 11.6334 10.9656 11.4804C10.8677 11.4498 10.7606 11.4681 10.678 11.5293L8.81777 12.8817L9.0656 10.5778C9.07478 10.4799 9.03806 10.3789 8.96463 10.3086C8.46898 9.83738 8.07735 9.28359 7.80199 8.65637C7.51744 8.0108 7.37364 7.32544 7.37364 6.61256C7.37364 5.92415 7.50826 5.25716 7.77445 4.62994V4.62688Z" fill="url(#paint13_linear_51_3)"/>
<path d="M9.47253 24.2389C9.47253 24.1349 9.38992 24.0553 9.28589 24.0553C9.20022 24.0553 9.12679 24.1135 9.10537 24.193C9.10231 24.193 9.09925 24.1961 9.0962 24.1991C9.04112 24.2328 8.92792 24.3093 8.92792 24.4623C8.92792 24.5724 8.98605 24.6428 9.03806 24.6887C8.98605 24.7315 8.92792 24.8019 8.92792 24.912C8.92792 25.0222 8.98605 25.0925 9.03806 25.1354C8.98605 25.1782 8.92792 25.2486 8.92792 25.3587C8.92792 25.4597 9.01053 25.5423 9.11455 25.5423C9.20022 25.5423 9.27365 25.4842 9.29507 25.4046C9.29507 25.4046 9.30119 25.4016 9.30425 25.3985C9.35932 25.3648 9.47253 25.2883 9.47253 25.1323C9.47253 25.0222 9.41439 24.9518 9.36238 24.909C9.41439 24.8661 9.47253 24.7958 9.47253 24.6856C9.47253 24.5755 9.41439 24.5051 9.36238 24.4623C9.41439 24.4194 9.47253 24.3491 9.47253 24.2389Z" fill="url(#paint14_linear_51_3)"/>
<path d="M11.2593 24.6306C11.3175 24.5449 11.293 24.4286 11.2073 24.3736C11.1339 24.3215 11.036 24.3338 10.9717 24.395H10.9595C10.8952 24.395 10.7606 24.4011 10.6719 24.5296C10.6015 24.6306 10.6168 24.7315 10.6382 24.7988C10.5679 24.805 10.4699 24.8294 10.3996 24.9304C10.3292 25.0314 10.3445 25.1323 10.3659 25.1996C10.2955 25.2058 10.1976 25.2302 10.1273 25.3312C10.0691 25.4169 10.0936 25.5301 10.1762 25.5882C10.2099 25.6096 10.2435 25.6188 10.2802 25.6188C10.3261 25.6188 10.3751 25.6005 10.4088 25.5668H10.4241C10.4883 25.5668 10.6229 25.5607 10.7117 25.4322C10.782 25.3312 10.7667 25.2302 10.7453 25.1629C10.8157 25.1568 10.9136 25.1323 10.984 25.0314C11.0513 24.9304 11.039 24.8294 11.0176 24.7621C11.088 24.756 11.1859 24.7346 11.2563 24.6306H11.2593Z" fill="url(#paint15_linear_51_3)"/>
<path d="M8.15079 25.4566C8.15079 25.4566 8.15385 25.4474 8.15691 25.4444C8.17833 25.3832 8.22422 25.2578 8.13855 25.1293C8.07124 25.0283 7.97028 25.0038 7.89991 24.9977C7.92132 24.9304 7.93356 24.8294 7.86625 24.7284C7.79588 24.6275 7.69797 24.603 7.6276 24.5969C7.64902 24.5296 7.66126 24.4286 7.59395 24.3276C7.53581 24.242 7.42261 24.2206 7.33694 24.2787C7.26351 24.3307 7.23597 24.4225 7.26963 24.502C7.26963 24.5051 7.26657 24.5112 7.26351 24.5143C7.24209 24.5755 7.1962 24.7009 7.28187 24.8294C7.34918 24.9304 7.45014 24.9549 7.52052 24.961C7.4991 25.0283 7.48686 25.1293 7.55417 25.2302C7.62454 25.3312 7.72245 25.3557 7.79282 25.3618C7.77446 25.4291 7.75916 25.5301 7.82648 25.631C7.86319 25.6861 7.92132 25.7136 7.98251 25.7136C8.01617 25.7136 8.05289 25.7014 8.08654 25.683C8.16303 25.631 8.18751 25.5392 8.15385 25.4597L8.15079 25.4566Z" fill="url(#paint16_linear_51_3)"/>
<path d="M15.6805 24.2389C15.6805 24.1349 15.5979 24.0553 15.4969 24.0553C15.4112 24.0553 15.3378 24.1135 15.3164 24.193C15.3133 24.193 15.3103 24.1961 15.3072 24.1991C15.2521 24.2328 15.1389 24.3093 15.1389 24.4623C15.1389 24.5724 15.197 24.6428 15.2491 24.6887C15.197 24.7315 15.1389 24.8019 15.1389 24.912C15.1389 25.0222 15.197 25.0925 15.2491 25.1354C15.197 25.1782 15.1389 25.2486 15.1389 25.3587C15.1389 25.4597 15.2215 25.5423 15.3256 25.5423C15.4112 25.5423 15.4847 25.4842 15.5061 25.4046C15.5061 25.4046 15.5122 25.4016 15.5122 25.3985C15.5673 25.3648 15.6805 25.2883 15.6805 25.1323C15.6805 25.0222 15.6223 24.9518 15.5703 24.909C15.6223 24.8661 15.6805 24.7958 15.6805 24.6856C15.6805 24.5755 15.6223 24.5051 15.5703 24.4623C15.6223 24.4194 15.6805 24.3491 15.6805 24.2389Z" fill="url(#paint17_linear_51_3)"/>
<path d="M17.4183 24.3704C17.3449 24.3184 17.247 24.3307 17.1827 24.3919H17.1705C17.1062 24.3919 16.9716 24.398 16.8829 24.5265C16.8156 24.6274 16.8278 24.7284 16.8492 24.7957C16.7788 24.8018 16.6809 24.8263 16.6106 24.9273C16.5402 25.0283 16.5555 25.1292 16.5769 25.1965C16.5065 25.2027 16.4086 25.2271 16.3383 25.3281C16.2801 25.4138 16.3046 25.527 16.3872 25.5851C16.4178 25.6065 16.4545 25.6157 16.4912 25.6157C16.5402 25.6157 16.5861 25.5973 16.6228 25.5637H16.6381C16.7024 25.5637 16.837 25.5576 16.9257 25.4291C16.993 25.3281 16.9808 25.2271 16.9594 25.1598C17.0297 25.1537 17.1276 25.1292 17.198 25.0283C17.2653 24.9273 17.2531 24.8263 17.2317 24.759C17.302 24.7529 17.3999 24.7284 17.4703 24.6275C17.5254 24.5418 17.504 24.4255 17.4183 24.3704Z" fill="url(#paint18_linear_51_3)"/>
<path d="M14.3465 25.1262C14.2761 25.0252 14.1782 25.0008 14.1078 24.9946C14.1262 24.9273 14.1415 24.8264 14.0742 24.7254C14.0038 24.6244 13.9059 24.5999 13.8355 24.5938C13.8569 24.5265 13.8692 24.4256 13.8019 24.3246C13.7437 24.2389 13.6305 24.2175 13.5449 24.2756C13.4714 24.3276 13.4439 24.4194 13.4775 24.499C13.4775 24.502 13.4745 24.5082 13.4714 24.5112C13.45 24.5724 13.4041 24.6979 13.4898 24.8264C13.5571 24.9273 13.6581 24.9518 13.7284 24.9579C13.707 25.0252 13.6948 25.1262 13.7621 25.2272C13.8294 25.3281 13.9304 25.3526 14.0007 25.3587C13.9793 25.426 13.9671 25.527 14.0344 25.628C14.0711 25.683 14.1292 25.7106 14.1904 25.7106C14.2241 25.7106 14.2608 25.6983 14.2945 25.68C14.3679 25.628 14.3954 25.5362 14.3618 25.4566C14.3648 25.4505 14.3679 25.4475 14.3679 25.4444C14.3924 25.3832 14.4383 25.2578 14.3526 25.1293L14.3465 25.1262Z" fill="url(#paint19_linear_51_3)"/>
<path d="M16.2557 26.0257H14.5637C14.3832 26.0257 14.2394 26.1695 14.2394 26.35V29.2475C14.2394 29.7645 14.0375 30.2479 13.6734 30.612C13.3093 30.9761 12.8228 31.175 12.3057 31.175C11.7887 31.175 11.3022 30.9761 10.9381 30.612C10.574 30.2479 10.3721 29.7645 10.3721 29.2475V27.7054V26.35C10.3721 26.1695 10.2283 26.0257 10.0477 26.0257H8.35578C8.17526 26.0257 8.03146 26.1695 8.03146 26.35V27.7024V29.2475C8.03146 29.8227 8.14467 30.3795 8.36802 30.9058C8.58219 31.4136 8.89121 31.8695 9.28284 32.2612C9.67447 32.6528 10.1334 32.9587 10.6413 33.1729C11.1706 33.3963 11.7305 33.5095 12.3057 33.5095C12.8809 33.5095 13.4408 33.3963 13.9701 33.1729C14.478 32.9587 14.937 32.6528 15.3286 32.2612C15.7202 31.8695 16.0293 31.4136 16.2434 30.9058C16.4668 30.3795 16.58 29.8227 16.58 29.2475V26.35C16.58 26.1695 16.4331 26.0257 16.2557 26.0257ZM8.68316 26.6743H9.72342V27.375C9.35015 27.375 9.00442 27.375 8.68316 27.375V26.6774V26.6743ZM15.9313 29.2475C15.9313 29.7339 15.8365 30.2082 15.6468 30.6549C15.4663 31.0863 15.2032 31.4718 14.8697 31.8022C14.5362 32.1327 14.1507 32.3958 13.7162 32.5763C13.2695 32.7629 12.7953 32.8608 12.3057 32.8608C11.8162 32.8608 11.342 32.766 10.8952 32.5763C10.4638 32.3958 10.0753 32.1327 9.74178 31.8022C9.40828 31.4718 9.14822 31.0863 8.96464 30.6549C8.77495 30.2082 8.6801 29.7339 8.6801 29.2475V28.0328H9.72036V29.2475C9.72036 29.9359 9.98961 30.5814 10.4761 31.0679C10.9626 31.5544 11.6112 31.8236 12.3027 31.8236C12.9941 31.8236 13.6428 31.5544 14.1292 31.0679C14.6188 30.5814 14.888 29.9359 14.888 29.2475V28.0267C15.2429 28.0267 15.5887 28.0267 15.9283 28.0267V29.2505L15.9313 29.2475ZM15.9313 27.3658C15.5917 27.3658 15.2429 27.3658 14.8911 27.3658V26.6743H15.9313V27.3658Z" fill="url(#paint20_linear_51_3)"/>
<defs>
<linearGradient id="paint0_linear_51_3" x1="12.3057" y1="13.2856" x2="12.3057" y2="23.6943" gradientUnits="userSpaceOnUse">
<stop stop-color="#FFA600"/>
<stop offset="1" stop-color="#C93400"/>
</linearGradient>
<linearGradient id="paint1_linear_51_3" x1="5.3681" y1="14.2616" x2="5.3681" y2="23.6974" gradientUnits="userSpaceOnUse">
<stop stop-color="#FFA600"/>
<stop offset="1" stop-color="#C93400"/>
</linearGradient>
<linearGradient id="paint2_linear_51_3" x1="19.2158" y1="14.2554" x2="19.2158" y2="23.6912" gradientUnits="userSpaceOnUse">
<stop stop-color="#FFA600"/>
<stop offset="1" stop-color="#C93400"/>
</linearGradient>
<linearGradient id="paint3_linear_51_3" x1="3.89984" y1="5.03076" x2="3.89984" y2="9.4733" gradientUnits="userSpaceOnUse">
<stop stop-color="#FFA600"/>
<stop offset="1" stop-color="#C93400"/>
</linearGradient>
<linearGradient id="paint4_linear_51_3" x1="3.53589" y1="2.9747" x2="3.53589" y2="13.3835" gradientUnits="userSpaceOnUse">
<stop stop-color="#FFA600"/>
<stop offset="1" stop-color="#C93400"/>
</linearGradient>
<linearGradient id="paint5_linear_51_3" x1="19.1393" y1="5.3306" x2="19.1393" y2="5.97923" gradientUnits="userSpaceOnUse">
<stop stop-color="#FFA600"/>
<stop offset="1" stop-color="#C93400"/>
</linearGradient>
<linearGradient id="paint6_linear_51_3" x1="21.4676" y1="2.9747" x2="21.4676" y2="13.3896" gradientUnits="userSpaceOnUse">
<stop stop-color="#FFA600"/>
<stop offset="1" stop-color="#C93400"/>
</linearGradient>
<linearGradient id="paint7_linear_51_3" x1="21.7125" y1="5.3306" x2="21.7125" y2="5.97923" gradientUnits="userSpaceOnUse">
<stop stop-color="#FFA600"/>
<stop offset="1" stop-color="#C93400"/>
</linearGradient>
<linearGradient id="paint8_linear_51_3" x1="21.1234" y1="6.53912" x2="21.1234" y2="7.18776" gradientUnits="userSpaceOnUse">
<stop stop-color="#FFA600"/>
<stop offset="1" stop-color="#C93400"/>
</linearGradient>
<linearGradient id="paint9_linear_51_3" x1="23.1291" y1="7.74463" x2="23.1291" y2="8.39326" gradientUnits="userSpaceOnUse">
<stop stop-color="#FFA600"/>
<stop offset="1" stop-color="#C93400"/>
</linearGradient>
<linearGradient id="paint10_linear_51_3" x1="20.5437" y1="7.74463" x2="20.5437" y2="8.39326" gradientUnits="userSpaceOnUse">
<stop stop-color="#FFA600"/>
<stop offset="1" stop-color="#C93400"/>
</linearGradient>
<linearGradient id="paint11_linear_51_3" x1="13.8386" y1="2.8309" x2="13.8386" y2="9.26524" gradientUnits="userSpaceOnUse">
<stop stop-color="#FFA600"/>
<stop offset="1" stop-color="#C93400"/>
</linearGradient>
<linearGradient id="paint12_linear_51_3" x1="9.76624" y1="5.3306" x2="9.76624" y2="9.26524" gradientUnits="userSpaceOnUse">
<stop stop-color="#FFA600"/>
<stop offset="1" stop-color="#C93400"/>
</linearGradient>
<linearGradient id="paint13_linear_51_3" x1="12.4924" y1="0.857452" x2="12.4924" y2="13.8944" gradientUnits="userSpaceOnUse">
<stop stop-color="#FFA600"/>
<stop offset="1" stop-color="#C93400"/>
</linearGradient>
<linearGradient id="paint14_linear_51_3" x1="9.20022" y1="24.0553" x2="9.20022" y2="25.5423" gradientUnits="userSpaceOnUse">
<stop stop-color="#FFA600"/>
<stop offset="1" stop-color="#C93400"/>
</linearGradient>
<linearGradient id="paint15_linear_51_3" x1="10.6932" y1="24.3409" x2="10.6932" y2="25.6188" gradientUnits="userSpaceOnUse">
<stop stop-color="#FFA600"/>
<stop offset="1" stop-color="#C93400"/>
</linearGradient>
<linearGradient id="paint16_linear_51_3" x1="7.71021" y1="24.246" x2="7.71021" y2="25.7136" gradientUnits="userSpaceOnUse">
<stop stop-color="#FFA600"/>
<stop offset="1" stop-color="#C93400"/>
</linearGradient>
<linearGradient id="paint17_linear_51_3" x1="15.4097" y1="24.0553" x2="15.4097" y2="25.5423" gradientUnits="userSpaceOnUse">
<stop stop-color="#FFA600"/>
<stop offset="1" stop-color="#C93400"/>
</linearGradient>
<linearGradient id="paint18_linear_51_3" x1="16.9035" y1="24.3378" x2="16.9035" y2="25.6157" gradientUnits="userSpaceOnUse">
<stop stop-color="#FFA600"/>
<stop offset="1" stop-color="#C93400"/>
</linearGradient>
<linearGradient id="paint19_linear_51_3" x1="13.9211" y1="24.243" x2="13.9211" y2="25.7106" gradientUnits="userSpaceOnUse">
<stop stop-color="#FFA600"/>
<stop offset="1" stop-color="#C93400"/>
</linearGradient>
<linearGradient id="paint20_linear_51_3" x1="12.3057" y1="26.0257" x2="12.3057" y2="33.5095" gradientUnits="userSpaceOnUse">
<stop stop-color="#FFA600"/>
<stop offset="1" stop-color="#C93400"/>
</linearGradient>
</defs>
</svg>
