<svg width="40" height="40" viewBox="0 0 40 40" fill="none" xmlns="http://www.w3.org/2000/svg">
<path d="M39 20.2059C39 9.44219 30.277 0.705872 19.5 0.705872C8.72298 0.705872 0 9.44219 0 20.2059C0 29.9425 7.13577 38.012 16.459 39.4658V25.8345H11.5106V20.1925H16.459V15.8977C16.459 11.0161 19.3666 8.30847 23.8215 8.30847C25.9555 8.30847 28.183 8.69527 28.183 8.69527V13.4969H25.7288C23.3013 13.4969 22.5544 15.0041 22.5544 16.5379V20.1925H27.9696L27.1026 25.8345H22.5544V39.4658C31.8776 37.9986 39.0133 29.9292 39.0133 20.2059H39Z" fill="url(#paint0_linear_133_38)"/>
<path d="M27.0893 25.8478L27.9562 20.2058H22.541V16.5513C22.541 15.0041 23.3013 13.5102 25.7155 13.5102H28.1696V8.70858C28.1696 8.70858 25.9422 8.32178 23.8081 8.32178C19.3533 8.32178 16.4456 11.016 16.4456 15.911V20.2058H11.4973V25.8478H16.4456V39.4791C17.4326 39.6392 18.4596 39.7192 19.4867 39.7192C20.5137 39.7192 21.5407 39.6392 22.5277 39.4791V25.8478H27.0759H27.0893Z" fill="white"/>
<defs>
<linearGradient id="paint0_linear_133_38" x1="19.5067" y1="0.705872" x2="19.5067" y2="39.4658" gradientUnits="userSpaceOnUse">
<stop stop-color="#FFA600"/>
<stop offset="1" stop-color="#C93400"/>
</linearGradient>
</defs>
</svg>
