<svg width="25" height="28" viewBox="0 0 25 28" fill="none" xmlns="http://www.w3.org/2000/svg">
<g clip-path="url(#clip0_23_2)">
<mask id="mask0_23_2" style="mask-type:luminance" maskUnits="userSpaceOnUse" x="0" y="3" width="25" height="25">
<path d="M0.0315704 3.33655H24.5491V27.7501H0.0315704V3.33655Z" fill="white"/>
</mask>
<g mask="url(#mask0_23_2)">
<path fill-rule="evenodd" clip-rule="evenodd" d="M12.291 27.7449C9.04232 27.7449 5.95149 26.4901 3.64587 24.1898C1.28895 21.8907 0.0315704 18.8078 0.0315704 15.5144C0.0315704 13.9466 0.345914 12.3789 1.02721 10.7059C1.07851 10.5494 1.28895 10.4455 1.49807 10.4967C1.6559 10.602 1.7598 10.8111 1.70719 11.0202C1.07851 12.5354 0.764162 14.0505 0.764162 15.5144C0.764162 21.8381 5.95149 27.0123 12.291 27.0123C18.6291 27.0123 23.8165 21.8381 23.8165 15.5144C23.8165 11.8567 22.0869 8.51072 19.1539 6.31558C18.9961 6.15907 18.9435 5.94994 19.0487 5.79343C19.2065 5.63691 19.4157 5.5843 19.5722 5.68952C21.0926 6.83905 22.3487 8.3016 23.1878 9.97459C24.0782 11.6989 24.5491 13.581 24.5491 15.5144C24.5491 18.8078 23.2917 21.8907 20.9348 24.1898C18.6291 26.4901 15.5383 27.7449 12.291 27.7449ZM4.27455 7.09947C4.16933 7.09947 4.06543 7.04817 4.01282 6.99556C3.85631 6.83905 3.85631 6.57731 4.01282 6.47341C5.16497 5.4804 6.42235 4.69651 7.78494 4.17304C9.19883 3.59828 10.7193 3.33655 12.291 3.33655C12.8671 3.33655 13.4957 3.33655 14.0192 3.44177C14.2283 3.49438 14.3336 3.65089 14.3336 3.86002C14.2809 4.06914 14.0718 4.22565 13.914 4.17304C13.3905 4.06914 12.8671 4.06914 12.291 4.06914C9.40927 4.06914 6.73669 5.06215 4.53629 6.99556C4.43238 7.04817 4.37977 7.09947 4.27455 7.09947Z" fill="url(#paint0_linear_23_2)"/>
</g>
<mask id="mask1_23_2" style="mask-type:luminance" maskUnits="userSpaceOnUse" x="11" y="2" width="14" height="15">
<path d="M11.4479 2.99976H24.5491V16.8046H11.4479V2.99976Z" fill="white"/>
</mask>
<g mask="url(#mask1_23_2)">
<path fill-rule="evenodd" clip-rule="evenodd" d="M24.1308 16.7691C23.9204 16.7691 19.2066 16.4548 19.1539 13.5809C19.1539 13.4244 19.1539 13.2153 19.1539 13.0575C19.1539 12.0132 19.1013 11.5949 18.7344 11.2293C18.2635 10.7584 17.1101 10.3402 15.224 9.76542C13.8101 9.29456 12.7618 8.51067 12.1858 7.41376C11.2954 5.63686 11.924 3.65084 11.9766 3.59823C12.0279 3.38911 12.2384 3.2852 12.3949 3.3365C12.6053 3.44172 12.7092 3.65084 12.6566 3.80736C12.6566 3.85997 12.0806 5.58425 12.8671 7.09942C13.3379 7.98852 14.2283 8.6685 15.4344 9.03414C17.5296 9.71281 18.6292 10.1311 19.2578 10.6545C19.8865 11.2806 19.8865 11.9606 19.8865 13.0062C19.8865 13.2153 19.8865 13.3718 19.8865 13.5809C19.9391 15.7761 24.1308 16.0365 24.1834 16.0365C24.3926 16.0365 24.4978 16.1943 24.4978 16.4035C24.4978 16.6126 24.34 16.7691 24.1308 16.7691Z" fill="url(#paint1_linear_23_2)"/>
</g>
<mask id="mask2_23_2" style="mask-type:luminance" maskUnits="userSpaceOnUse" x="0" y="14" width="15" height="14">
<path d="M0.0315704 14.7844H14.8149V27.5791H0.0315704V14.7844Z" fill="white"/>
</mask>
<g mask="url(#mask2_23_2)">
<path fill-rule="evenodd" clip-rule="evenodd" d="M9.25144 27.3779C9.19883 27.3779 9.19883 27.3779 9.14754 27.3779C8.98971 27.3266 8.8332 27.1175 8.88449 26.9083C9.04232 26.281 9.6184 25.1314 11.6097 24.3988C14.3862 23.4058 13.8627 21.7868 13.5484 20.845C13.4957 20.7938 13.4957 20.6885 13.4431 20.6359C13.3379 20.3755 12.5527 19.6955 11.4519 19.2773C10.7706 19.0155 9.51318 18.7025 8.51885 19.1734C8.04668 19.4338 7.67973 19.539 7.36538 19.539C6.52757 19.539 6.0554 18.859 5.53193 18.0225C5.27019 17.6056 4.95585 17.0821 4.53629 16.56C3.9076 15.88 2.4411 15.6709 0.449819 15.9852C0.240695 15.9852 0.0841803 15.88 0.0315704 15.6709C0.0315704 15.4617 0.135475 15.3052 0.345914 15.2526C1.6559 15.0435 4.01282 14.887 5.06107 16.0891C5.06107 16.0891 5.06107 16.1417 5.11237 16.1417C5.53193 16.6639 5.89888 17.1874 6.16062 17.6056C6.89452 18.8077 7.10365 19.1208 8.20451 18.546C9.40927 17.9186 10.9284 18.3369 11.7136 18.5986C12.7618 19.0155 13.914 19.7481 14.177 20.3755C14.177 20.4268 14.177 20.4268 14.177 20.4268C14.177 20.4794 14.2283 20.532 14.2283 20.6359C14.3862 21.1068 14.7005 21.8907 14.4388 22.7798C14.2283 23.7728 13.3379 24.5567 11.8714 25.0788C10.614 25.5497 9.82752 26.281 9.6184 27.1175C9.56579 27.274 9.40927 27.3779 9.25144 27.3779Z" fill="url(#paint2_linear_23_2)"/>
</g>
<path fill-rule="evenodd" clip-rule="evenodd" d="M5.63715 14.2083C4.85063 14.2083 4.01282 14.0504 3.48935 13.8939C2.28459 13.6335 0.816775 13.0574 0.502431 12.6405C0.398527 12.4827 0.449822 12.2735 0.607651 12.117C0.764165 12.0131 0.974604 12.0644 1.13112 12.2223C1.23634 12.3788 2.33588 12.8496 3.75109 13.2153C5.2702 13.5809 6.42235 13.5283 6.99843 13.1627C7.67973 12.6405 7.15626 11.3331 6.58018 10.3401C5.84628 9.138 6.0554 8.66846 6.63279 7.88457C6.89453 7.57023 7.15626 7.15198 7.41799 6.52461C7.67973 5.94985 7.73234 5.21857 7.57582 4.53859C7.52321 4.38207 7.67973 4.17295 7.83756 4.12034C8.04668 4.06905 8.25581 4.22556 8.30842 4.38207C8.46625 5.21857 8.41364 6.05507 8.09929 6.78634C8.09929 6.83895 8.09929 6.83895 8.09929 6.83895C7.78495 7.51762 7.4706 7.98848 7.26148 8.30151C6.78931 8.98149 6.68409 9.08539 7.20887 9.9745C7.78495 10.9149 8.04668 11.6988 8.04668 12.3262C8.09929 12.9535 7.83756 13.4757 7.36539 13.79C6.89453 14.1031 6.26584 14.2083 5.63715 14.2083Z" fill="url(#paint3_linear_23_2)"/>
<path fill-rule="evenodd" clip-rule="evenodd" d="M11.3479 19.2247C11.2427 19.2247 11.1375 19.1734 11.0336 19.0682C10.9284 18.859 10.7193 18.5986 10.5088 18.3369C9.77622 17.2913 8.78058 15.9326 8.78058 15.0435C8.78058 13.6849 9.93273 12.5353 11.3479 12.5353C12.7092 12.5353 13.8627 13.6849 13.8627 15.0435C13.8627 15.88 13.0236 17.0821 12.2384 18.1804C12.0279 18.4934 11.8188 18.8077 11.6623 19.0682C11.6097 19.1734 11.5045 19.2247 11.3479 19.2247ZM11.3479 13.2666C10.3523 13.2666 9.51317 14.1031 9.51317 15.0435C9.51317 15.7235 10.5088 17.0295 11.1375 17.9186C11.1901 18.0225 11.2953 18.1278 11.3479 18.1804C11.4518 18.0752 11.5571 17.9186 11.6623 17.7621C12.2384 16.9256 13.1288 15.6709 13.1288 15.0435C13.1288 14.1031 12.291 13.2666 11.3479 13.2666Z" fill="url(#paint4_linear_23_2)"/>
<path fill-rule="evenodd" clip-rule="evenodd" d="M11.3479 16.4036C10.5614 16.4036 9.98535 15.8288 9.98535 15.0436C9.98535 14.3123 10.5614 13.7375 11.3479 13.7375C12.0805 13.7375 12.6566 14.3123 12.6566 15.0436C12.6566 15.8288 12.0805 16.4036 11.3479 16.4036ZM11.3479 14.4688C10.981 14.4688 10.7193 14.7306 10.7193 15.0436C10.7193 15.4105 10.981 15.671 11.3479 15.671C11.6623 15.671 11.924 15.4105 11.924 15.0436C11.924 14.7306 11.6623 14.4688 11.3479 14.4688Z" fill="url(#paint5_linear_23_2)"/>
<path fill-rule="evenodd" clip-rule="evenodd" d="M16.9535 10.0272C16.8483 10.0272 16.6918 9.97457 16.6392 9.87067C16.4287 9.55632 16.167 9.13807 15.8527 8.71982C14.8057 7.30857 13.5483 5.53167 13.5483 4.38214C13.5483 2.50134 15.0674 0.984863 16.9535 0.984863C17.8439 0.984863 18.6817 1.3505 19.3104 1.97787C19.9391 2.60525 20.3061 3.49435 20.3061 4.38214C20.3061 5.53167 19.0487 7.36118 18.0004 8.77243C17.7387 9.19068 17.4244 9.55632 17.2679 9.87067C17.2152 9.97457 17.0574 10.0272 16.9535 10.0272ZM16.9535 1.71746C15.4857 1.71746 14.2809 2.91959 14.2809 4.38214C14.2809 5.27125 15.5383 7.04815 16.4287 8.30158C16.6392 8.56331 16.7957 8.77243 16.9535 8.98156C17.11 8.82504 17.2679 8.56331 17.4244 8.35419C18.3148 7.04815 19.5722 5.32254 19.5722 4.38214C19.5722 2.91959 18.42 1.71746 16.9535 1.71746Z" fill="url(#paint6_linear_23_2)"/>
<path fill-rule="evenodd" clip-rule="evenodd" d="M16.9535 6.21165C15.9053 6.21165 15.0675 5.37516 15.0675 4.38214C15.0675 3.33652 15.9053 2.50134 16.9535 2.50134C17.9492 2.50134 18.787 3.33652 18.787 4.38214C18.787 5.37516 17.9492 6.21165 16.9535 6.21165ZM16.9535 3.23262C16.3248 3.23262 15.8 3.75477 15.8 4.38214C15.8 4.95691 16.3248 5.48038 16.9535 5.48038C17.5296 5.48038 18.0531 4.95691 18.0531 4.38214C18.0531 3.75477 17.5296 3.23262 16.9535 3.23262Z" fill="url(#paint7_linear_23_2)"/>
<mask id="mask3_23_2" style="mask-type:luminance" maskUnits="userSpaceOnUse" x="0" y="6" width="7" height="8">
<path d="M0.0315704 6.03009H6.06066V13.7743H0.0315704V6.03009Z" fill="white"/>
</mask>
<g mask="url(#mask3_23_2)">
<path fill-rule="evenodd" clip-rule="evenodd" d="M3.01719 13.6849C2.91328 13.6849 2.75545 13.6336 2.70284 13.5283C2.54633 13.2153 2.28459 12.8497 1.97025 12.4827C1.13112 11.2806 0.135483 9.87064 0.135483 8.92893C0.135483 7.36115 1.44547 6.05511 3.01719 6.05511C4.64152 6.05511 5.89889 7.30854 5.89889 8.92893C5.89889 9.97455 4.79803 11.4897 3.90761 12.6918C3.69848 13.0062 3.48936 13.2666 3.33153 13.5283C3.27892 13.6336 3.12241 13.6849 3.01719 13.6849ZM3.01719 6.78639C1.81242 6.78639 0.86939 7.72679 0.86939 8.92893C0.86939 9.66152 1.86503 11.0715 2.59894 12.0645C2.75545 12.2736 2.91328 12.4827 3.01719 12.6918C3.12241 12.5353 3.22763 12.4314 3.33153 12.2736C4.06544 11.2806 5.16498 9.71281 5.16498 8.92893C5.16498 7.72679 4.22195 6.78639 3.01719 6.78639Z" fill="url(#paint8_linear_23_2)"/>
</g>
<path fill-rule="evenodd" clip-rule="evenodd" d="M3.01718 10.4966C2.12676 10.4966 1.44547 9.81796 1.44547 8.92885C1.44547 8.04106 2.17937 7.30847 3.01718 7.30847C3.90761 7.30847 4.64151 8.04106 4.64151 8.92885C4.64151 9.81796 3.90761 10.4966 3.01718 10.4966ZM3.01718 8.04106C2.54633 8.04106 2.17937 8.45931 2.17937 8.92885C2.17937 9.39971 2.54633 9.76535 3.01718 9.76535C3.48936 9.76535 3.9076 9.39971 3.9076 8.92885C3.9076 8.45931 3.48936 8.04106 3.01718 8.04106Z" fill="url(#paint9_linear_23_2)"/>
<mask id="mask4_23_2" style="mask-type:luminance" maskUnits="userSpaceOnUse" x="19" y="16" width="4" height="5">
<path d="M19.1355 16.8125H22.8892V20.5649H19.1355V16.8125Z" fill="white"/>
</mask>
<g mask="url(#mask4_23_2)">
<mask id="mask5_23_2" style="mask-type:luminance" maskUnits="userSpaceOnUse" x="19" y="16" width="4" height="5">
<path d="M21.0321 16.8125C19.9852 16.8125 19.1355 17.6608 19.1355 18.7078C19.1355 19.7547 19.9852 20.6044 21.0321 20.6044C22.079 20.6044 22.9274 19.7547 22.9274 18.7078C22.9274 17.6608 22.079 16.8125 21.0321 16.8125Z" fill="white"/>
</mask>
<g mask="url(#mask5_23_2)">
<path d="M21.0321 16.8125C19.9852 16.8125 19.1355 17.6608 19.1355 18.7078C19.1355 19.7547 19.9852 20.6044 21.0321 20.6044C22.079 20.6044 22.9274 19.7547 22.9274 18.7078C22.9274 17.6608 22.079 16.8125 21.0321 16.8125Z" stroke="url(#paint10_linear_23_2)" stroke-width="1.50113"/>
</g>
</g>
</g>
<defs>
<linearGradient id="paint0_linear_23_2" x1="12.2903" y1="3.33655" x2="12.2903" y2="27.7449" gradientUnits="userSpaceOnUse">
<stop stop-color="#FFA600"/>
<stop offset="1" stop-color="#C93400"/>
</linearGradient>
<linearGradient id="paint1_linear_23_2" x1="18.105" y1="3.32355" x2="18.105" y2="16.7691" gradientUnits="userSpaceOnUse">
<stop stop-color="#FFA600"/>
<stop offset="1" stop-color="#C93400"/>
</linearGradient>
<linearGradient id="paint2_linear_23_2" x1="7.28541" y1="15.1082" x2="7.28541" y2="27.3779" gradientUnits="userSpaceOnUse">
<stop stop-color="#FFA600"/>
<stop offset="1" stop-color="#C93400"/>
</linearGradient>
<linearGradient id="paint3_linear_23_2" x1="4.42147" y1="4.11041" x2="4.42147" y2="14.2083" gradientUnits="userSpaceOnUse">
<stop stop-color="#FFA600"/>
<stop offset="1" stop-color="#C93400"/>
</linearGradient>
<linearGradient id="paint4_linear_23_2" x1="11.3216" y1="12.5353" x2="11.3216" y2="19.2247" gradientUnits="userSpaceOnUse">
<stop stop-color="#FFA600"/>
<stop offset="1" stop-color="#C93400"/>
</linearGradient>
<linearGradient id="paint5_linear_23_2" x1="11.321" y1="13.7375" x2="11.321" y2="16.4036" gradientUnits="userSpaceOnUse">
<stop stop-color="#FFA600"/>
<stop offset="1" stop-color="#C93400"/>
</linearGradient>
<linearGradient id="paint6_linear_23_2" x1="16.9272" y1="0.984863" x2="16.9272" y2="10.0272" gradientUnits="userSpaceOnUse">
<stop stop-color="#FFA600"/>
<stop offset="1" stop-color="#C93400"/>
</linearGradient>
<linearGradient id="paint7_linear_23_2" x1="16.9272" y1="2.50134" x2="16.9272" y2="6.21165" gradientUnits="userSpaceOnUse">
<stop stop-color="#FFA600"/>
<stop offset="1" stop-color="#C93400"/>
</linearGradient>
<linearGradient id="paint8_linear_23_2" x1="3.01719" y1="6.05511" x2="3.01719" y2="13.6849" gradientUnits="userSpaceOnUse">
<stop stop-color="#FFA600"/>
<stop offset="1" stop-color="#C93400"/>
</linearGradient>
<linearGradient id="paint9_linear_23_2" x1="3.04349" y1="7.30847" x2="3.04349" y2="10.4966" gradientUnits="userSpaceOnUse">
<stop stop-color="#FFA600"/>
<stop offset="1" stop-color="#C93400"/>
</linearGradient>
<linearGradient id="paint10_linear_23_2" x1="21.0314" y1="16.8125" x2="21.0314" y2="20.6044" gradientUnits="userSpaceOnUse">
<stop stop-color="#FFA600"/>
<stop offset="1" stop-color="#C93400"/>
</linearGradient>
<clipPath id="clip0_23_2">
<rect width="24.7477" height="27.0204" fill="white" transform="translate(0 0.979553)"/>
</clipPath>
</defs>
</svg>
