<svg width="22" height="21" viewBox="0 0 22 21" fill="none" xmlns="http://www.w3.org/2000/svg">
<path d="M15.9225 0.877014C13.5145 0.877014 11.7712 2.26571 11.003 3.02211C10.2318 2.26571 8.49446 0.877014 6.08345 0.877014C4.02699 0.877014 2.21282 2.06184 1.23777 4.04147C-0.0475101 6.64454 0.45183 9.96265 2.55261 12.7253C5.06408 15.7124 8.69538 18.6169 10.1402 19.7279C10.3943 19.9229 10.6957 20.0174 11 20.0174C11.3044 20.0174 11.6057 19.9229 11.8598 19.7279C13.3047 18.6169 16.936 15.7124 19.4652 12.7046C21.5512 9.96265 22.0505 6.64454 20.7682 4.04147C19.7902 2.06184 17.979 0.877014 15.9196 0.877014H15.9225ZM18.5906 12.0014C16.15 14.9029 12.5956 17.7512 11.1803 18.8385C11.0768 18.9212 10.9291 18.9212 10.8257 18.8385C9.41041 17.7512 5.85594 14.9058 3.4331 12.025C1.24959 9.15602 1.38551 6.27521 2.24532 4.53786C3.03126 2.94529 4.46428 1.99979 6.08345 1.99979C8.77516 1.99979 10.548 4.17443 10.5657 4.19512C10.7784 4.46399 11.2334 4.46399 11.4432 4.19512C11.461 4.17443 13.2131 1.99979 15.9255 1.99979C17.5476 1.99979 18.9806 2.94824 19.7666 4.53786C20.6205 6.27816 20.7564 9.15897 18.5935 12.0014H18.5906Z" fill="url(#paint0_linear_36_146)"/>
<defs>
<linearGradient id="paint0_linear_36_146" x1="11.0022" y1="0.877014" x2="11.0022" y2="20.0174" gradientUnits="userSpaceOnUse">
<stop stop-color="#FFA600"/>
<stop offset="1" stop-color="#C93400"/>
</linearGradient>
</defs>
</svg>
