<svg width="22" height="28" viewBox="0 0 22 28" fill="none" xmlns="http://www.w3.org/2000/svg">
<path d="M11.0454 3.38713H12.6779C13.0389 3.38713 13.0389 2.84821 12.6779 2.84821H11.0454C10.687 2.84821 10.687 3.38713 11.0454 3.38713Z" fill="url(#paint0_linear_51_5)"/>
<path d="M9.31615 3.99412C10.4568 3.99412 10.4568 2.22821 9.31615 2.22821C8.17551 2.22821 8.15719 3.99412 9.31615 3.99412ZM9.31615 2.76714C9.73997 2.76714 9.73997 3.45257 9.31615 3.45257C8.89234 3.45257 8.87664 2.76714 9.31615 2.76714Z" fill="url(#paint1_linear_51_5)"/>
<path d="M15.731 1.45905H5.66137C4.06289 1.45905 2.75743 2.76713 2.75743 4.36822V23.7121C2.75743 25.3132 4.06289 26.6239 5.66137 26.6239H15.731C17.3294 26.6239 18.6349 25.3132 18.6192 23.7121V4.37083C18.6192 2.76974 17.3294 1.46166 15.731 1.46166V1.45905ZM14.6217 1.99797L14.2476 2.81422C13.8395 3.64877 13.5962 4.22171 12.9264 4.22171H8.45543C7.8354 4.22171 7.55808 3.69848 7.16566 2.84823L6.75754 1.99797H14.6217ZM18.0803 23.7147C18.0803 25.0228 17.0207 26.0693 15.731 26.0693H5.66137C4.3559 26.0693 3.29636 25.0228 3.29636 23.7147V4.37083C3.29636 3.06275 4.3559 2.00059 5.66137 2.00059H6.1689L6.64243 3.04705C7.01654 3.81621 7.39327 4.76326 8.46851 4.76326H12.9238C13.952 4.76326 14.3601 3.87899 14.7185 3.07845L15.2234 2.00059H15.731C17.0207 2.00059 18.0803 3.06275 18.0803 4.37083V23.7147Z" fill="url(#paint2_linear_51_5)"/>
<path d="M10.687 7.573C7.12903 7.573 4.24079 10.4665 4.24079 14.0323C4.24079 17.5981 7.12903 20.4916 10.687 20.4916C14.245 20.4916 17.1175 17.5981 17.1175 14.0323C17.1175 10.4665 14.2293 7.573 10.687 7.573ZM10.687 19.937C7.42466 19.937 4.77972 17.2894 4.77972 14.0349C4.77972 10.7804 7.42204 8.11454 10.687 8.11454C13.952 8.11454 16.5786 10.7804 16.5786 14.0349C16.5786 17.2894 13.9363 19.937 10.687 19.937Z" fill="url(#paint3_linear_51_5)"/>
<path d="M21.115 10.0113C21.2615 10.0113 21.3923 9.89617 21.3923 9.74967V7.05241C21.3923 6.8902 21.2641 6.77509 21.115 6.77509H20.0058V4.37084C20.0058 2.0006 18.096 0.0855713 15.731 0.0855713H5.66137C3.29636 0.0855713 1.37087 1.99798 1.37087 4.37084V7.96806H0.277313C0.115111 7.96806 0 8.08317 0 8.24538V11.1075C0 11.254 0.112495 11.3691 0.277313 11.3691H1.37087V23.7147C1.37087 26.0693 3.29636 28 5.66137 28H15.731C18.096 28 20.0215 26.0693 20.0058 23.7147V14.0663H21.115C21.2615 14.0663 21.3923 13.9512 21.3923 13.8047V11.1048C21.3923 10.9426 21.2641 10.8275 21.115 10.8275H20.0058V10.0113H21.115ZM20.0058 7.31141H20.8377V9.46974H20.0058V7.31141ZM1.37087 10.8275H0.538929V8.50437H1.37087V10.8275ZM19.4668 23.7147C19.4668 25.7763 17.7873 27.4454 15.731 27.4454H5.66137C3.58937 27.4454 1.9098 25.7763 1.9098 23.7147V4.37084C1.9098 2.30931 3.58937 0.627116 5.66137 0.627116H15.731C17.7873 0.627116 19.4668 2.31192 19.4668 4.37084V23.7147ZM20.8377 11.3665V13.5274H20.0058V11.3665H20.8377Z" fill="url(#paint4_linear_51_5)"/>
<path d="M5.20615 13.8885C5.15645 13.9879 5.15645 14.0847 5.20615 14.1815C6.38081 16.1279 8.43711 17.2895 10.6896 17.2895C12.9421 17.2895 14.9984 16.1122 16.1731 14.1815C16.2228 14.082 16.2228 13.9853 16.1731 13.8885C13.6119 9.74969 7.75168 9.7837 5.20615 13.8885ZM5.76078 14.035C6.56132 12.808 7.75168 11.9394 9.10685 11.5653C7.29646 12.7269 7.31216 15.3614 9.10685 16.5203C7.75168 16.1436 6.56132 15.2776 5.76078 14.035ZM15.6159 14.035C14.8153 15.2619 13.6407 16.1436 12.2698 16.5203C14.0802 15.3587 14.0802 12.7243 12.2855 11.5653C13.6407 11.942 14.8153 12.808 15.6132 14.035H15.6159ZM13.086 14.035C13.086 15.3587 12.0108 16.4392 10.687 16.4392C9.36323 16.4392 8.28799 15.3614 8.28799 14.035C8.28799 12.7086 9.36585 11.6307 10.687 11.6307C12.0082 11.6307 13.086 12.7086 13.086 14.035Z" fill="url(#paint5_linear_51_5)"/>
<path d="M15.5191 23.8952H5.87327C5.51486 23.8952 5.51486 24.4498 5.87327 24.4498H15.5164C15.8592 24.4498 15.8749 23.8952 15.5164 23.8952H15.5191Z" fill="url(#paint6_linear_51_5)"/>
<path d="M10.687 15.2933C11.3724 15.2933 11.9271 14.7204 11.9271 14.0349C11.9271 13.3495 11.3724 12.774 10.687 12.774C10.0016 12.774 9.43126 13.3469 9.43126 14.0349C9.43126 14.723 9.98588 15.2933 10.687 15.2933Z" fill="url(#paint7_linear_51_5)"/>
<defs>
<linearGradient id="paint0_linear_51_5" x1="11.8626" y1="2.84821" x2="11.8626" y2="3.38713" gradientUnits="userSpaceOnUse">
<stop stop-color="#FFA600"/>
<stop offset="1" stop-color="#C93400"/>
</linearGradient>
<linearGradient id="paint1_linear_51_5" x1="9.31271" y1="2.22821" x2="9.31271" y2="3.99412" gradientUnits="userSpaceOnUse">
<stop stop-color="#FFA600"/>
<stop offset="1" stop-color="#C93400"/>
</linearGradient>
<linearGradient id="paint2_linear_51_5" x1="10.6884" y1="1.45905" x2="10.6884" y2="26.6239" gradientUnits="userSpaceOnUse">
<stop stop-color="#FFA600"/>
<stop offset="1" stop-color="#C93400"/>
</linearGradient>
<linearGradient id="paint3_linear_51_5" x1="10.6792" y1="7.573" x2="10.6792" y2="20.4916" gradientUnits="userSpaceOnUse">
<stop stop-color="#FFA600"/>
<stop offset="1" stop-color="#C93400"/>
</linearGradient>
<linearGradient id="paint4_linear_51_5" x1="10.6962" y1="0.0855713" x2="10.6962" y2="28" gradientUnits="userSpaceOnUse">
<stop stop-color="#FFA600"/>
<stop offset="1" stop-color="#C93400"/>
</linearGradient>
<linearGradient id="paint5_linear_51_5" x1="10.6896" y1="10.7971" x2="10.6896" y2="17.2895" gradientUnits="userSpaceOnUse">
<stop stop-color="#FFA600"/>
<stop offset="1" stop-color="#C93400"/>
</linearGradient>
<linearGradient id="paint6_linear_51_5" x1="10.6919" y1="23.8952" x2="10.6919" y2="24.4498" gradientUnits="userSpaceOnUse">
<stop stop-color="#FFA600"/>
<stop offset="1" stop-color="#C93400"/>
</linearGradient>
<linearGradient id="paint7_linear_51_5" x1="10.6792" y1="12.774" x2="10.6792" y2="15.2933" gradientUnits="userSpaceOnUse">
<stop stop-color="#FFA600"/>
<stop offset="1" stop-color="#C93400"/>
</linearGradient>
</defs>
</svg>
