<svg width="39" height="39" viewBox="0 0 39 39" fill="none" xmlns="http://www.w3.org/2000/svg">
<path d="M19.5 39C30.2696 39 39 30.2696 39 19.5C39 8.73045 30.2696 0 19.5 0C8.73045 0 0 8.73045 0 19.5C0 30.2696 8.73045 39 19.5 39Z" fill="url(#paint0_linear_133_37)"/>
<path d="M25.5554 12.1241C24.8218 12.1241 24.2216 12.7243 24.2216 13.4712C24.2216 14.2182 24.8218 14.8184 25.5554 14.8184C26.289 14.8184 26.9025 14.2182 26.9025 13.4712C26.9025 12.7243 26.3023 12.1241 25.5554 12.1241Z" fill="white"/>
<path d="M19.5934 13.8448C16.4856 13.8448 13.9648 16.3656 13.9648 19.4733C13.9648 22.5811 16.4856 25.1019 19.5934 25.1019C22.7011 25.1019 25.222 22.5811 25.222 19.4733C25.222 16.3656 22.7011 13.8448 19.5934 13.8448ZM19.5934 23.0879C17.606 23.0879 15.9921 21.474 15.9921 19.4867C15.9921 17.4993 17.606 15.8855 19.5934 15.8855C21.5807 15.8855 23.1946 17.4993 23.1946 19.4867C23.1946 21.474 21.5807 23.0879 19.5934 23.0879Z" fill="white"/>
<path d="M24.0616 30.9039H14.9384C11.1505 30.9039 8.06943 27.8229 8.06943 24.0349V14.9118C8.06943 11.1238 11.1505 8.04276 14.9384 8.04276H24.0616C27.8495 8.04276 30.9306 11.1238 30.9306 14.9118V24.0349C30.9306 27.8229 27.8495 30.9039 24.0616 30.9039ZM14.9384 10.1902C12.3376 10.1902 10.2168 12.3109 10.2168 14.9118V24.0349C10.2168 26.6358 12.3376 28.7565 14.9384 28.7565H24.0616C26.6625 28.7565 28.7832 26.6358 28.7832 24.0349V14.9118C28.7832 12.3109 26.6625 10.1902 24.0616 10.1902H14.9384Z" fill="white"/>
<defs>
<linearGradient id="paint0_linear_133_37" x1="19.5" y1="0" x2="19.5" y2="39" gradientUnits="userSpaceOnUse">
<stop stop-color="#FFA600"/>
<stop offset="1" stop-color="#C93400"/>
</linearGradient>
</defs>
</svg>
