<svg width="26" height="24" viewBox="0 0 26 24" fill="none" xmlns="http://www.w3.org/2000/svg">
<g clip-path="url(#clip0_14_132)">
<path d="M23.511 19.1071H2.00017C1.87735 19.1071 1.73698 19.1071 1.61416 19.072C1.49135 19.0369 1.36853 19.0018 1.24571 18.9667C1.12289 18.9141 1.01762 18.8615 0.894796 18.7913C0.789523 18.7211 0.684249 18.6334 0.596521 18.5457C0.508793 18.4579 0.421065 18.3527 0.350883 18.2474C0.280701 18.1421 0.210518 18.0193 0.175427 17.8965C0.122791 17.7736 0.0876994 17.6508 0.0526083 17.528C0.0350627 17.4052 0.0175171 17.2648 0.0175171 17.142V2.01772C0.0175171 1.8949 0.0175171 1.75453 0.0526083 1.63171C0.0701538 1.5089 0.122791 1.38608 0.175427 1.26326C0.228064 1.14044 0.280701 1.03516 0.350883 0.912346C0.421065 0.807072 0.508793 0.701799 0.596521 0.614071C0.684249 0.526343 0.789523 0.438615 0.894796 0.368433C1.00007 0.29825 1.12289 0.228068 1.24571 0.192977C1.36853 0.14034 1.49135 0.105249 1.61416 0.0877035C1.73698 0.0701579 1.87735 0.0526123 2.00017 0.0526123H23.511C23.6339 0.0526123 23.7742 0.0526123 23.8971 0.0877035C24.0199 0.105249 24.1427 0.157886 24.2655 0.192977C24.3883 0.245614 24.4936 0.29825 24.6164 0.368433C24.7217 0.438615 24.827 0.526343 24.9147 0.614071C25.0024 0.701799 25.0902 0.807072 25.1603 0.912346C25.2305 1.01762 25.3007 1.14044 25.3533 1.26326C25.406 1.38608 25.4411 1.5089 25.4586 1.63171C25.4762 1.75453 25.4937 1.8949 25.4937 2.01772V17.1245C25.4937 17.2473 25.4937 17.3876 25.4586 17.5105C25.4235 17.6333 25.3884 17.7561 25.3533 17.8789C25.3007 18.0017 25.2481 18.107 25.1603 18.2298C25.0902 18.3351 25.0024 18.4404 24.9147 18.5281C24.827 18.6158 24.7217 18.7036 24.6164 18.7737C24.5111 18.8439 24.3883 18.9141 24.2655 18.9492C24.1427 19.0018 24.0199 19.0369 23.8971 19.0545C23.7742 19.072 23.6339 19.0896 23.511 19.0896V19.1071ZM2.00017 0.824618C1.92999 0.824618 1.84226 0.824618 1.77208 0.842163C1.70189 0.842163 1.61416 0.877255 1.54398 0.912346C1.4738 0.947437 1.40362 0.982528 1.33344 1.01762C1.26325 1.07026 1.21062 1.10535 1.15798 1.15798C1.10534 1.21062 1.05271 1.2808 1.01762 1.33344C0.982524 1.40362 0.929887 1.4738 0.912342 1.54399C0.877251 1.61417 0.859705 1.68435 0.842159 1.77208C0.842159 1.84226 0.824614 1.92999 0.824614 2.00017V17.1069C0.824614 17.1771 0.824614 17.2648 0.842159 17.335C0.859705 17.4052 0.877251 17.4929 0.912342 17.5631C0.947433 17.6333 0.982524 17.7035 1.01762 17.7736C1.07025 17.8438 1.10534 17.8965 1.15798 17.9491C1.21062 18.0017 1.2808 18.0544 1.33344 18.0895C1.40362 18.1246 1.4738 18.1772 1.54398 18.1947C1.61416 18.2298 1.68435 18.2474 1.77208 18.2649C1.84226 18.2649 1.92999 18.2825 2.00017 18.2825H23.511C23.5812 18.2825 23.669 18.2825 23.7391 18.2649C23.8093 18.2649 23.8971 18.2298 23.9672 18.1947C24.0374 18.1597 24.1076 18.1246 24.1778 18.0895C24.248 18.0368 24.3006 18.0017 24.3532 17.9491C24.4059 17.8965 24.4585 17.8263 24.4936 17.7736C24.5462 17.7035 24.5813 17.6333 24.5989 17.5631C24.6164 17.4929 24.6515 17.4227 24.6691 17.335C24.6691 17.2648 24.6866 17.1771 24.6866 17.1069V2.01772C24.6866 1.94754 24.6866 1.85981 24.6691 1.78962C24.6691 1.71944 24.634 1.63171 24.5989 1.56153C24.5638 1.49135 24.5287 1.42117 24.4936 1.35099C24.441 1.2808 24.4059 1.22817 24.3532 1.17553C24.3006 1.12289 24.2304 1.07026 24.1778 1.03516C24.1076 1.00007 24.0374 0.947437 23.9672 0.929891C23.8971 0.8948 23.8269 0.877255 23.7391 0.859709C23.669 0.859709 23.5812 0.842163 23.511 0.842163H2.00017V0.824618Z" fill="url(#paint0_linear_14_132)"/>
<path d="M17.9316 21.4933H7.57967C7.54458 21.4933 7.50949 21.4933 7.49194 21.4933C7.47439 21.4933 7.4393 21.4758 7.40421 21.4583C7.36912 21.4583 7.35157 21.4232 7.33403 21.4056C7.31648 21.3881 7.28139 21.353 7.26385 21.3354C7.2463 21.3179 7.22876 21.2828 7.21121 21.2477C7.21121 21.2126 7.19366 21.1951 7.19366 21.16C7.19366 21.1249 7.19366 21.0898 7.19366 21.0723C7.19366 21.0372 7.19366 21.0021 7.21121 20.9845L8.00076 18.5983C8.03585 18.5106 8.07094 18.458 8.14113 18.4053C8.21131 18.3527 8.28149 18.3351 8.36922 18.3351H17.142C17.2297 18.3351 17.2999 18.3527 17.3701 18.4053C17.4403 18.458 17.4929 18.5281 17.5105 18.5983L18.3 20.9845C18.3 21.0196 18.3 21.0372 18.3176 21.0723C18.3176 21.1073 18.3176 21.1424 18.3176 21.16C18.3176 21.1951 18.3176 21.2126 18.3 21.2477C18.2825 21.2828 18.2649 21.3003 18.2474 21.3354C18.2298 21.353 18.2123 21.3881 18.1772 21.4056C18.1597 21.4232 18.1246 21.4407 18.107 21.4583C18.0719 21.4583 18.0544 21.4758 18.0193 21.4933C17.9842 21.4933 17.9491 21.4933 17.9316 21.4933ZM8.12358 20.6863H17.3701L16.8437 19.0896H8.64995L8.12358 20.6863Z" fill="url(#paint1_linear_14_132)"/>
<path d="M19.5283 23.0725H5.98308C5.93044 23.0725 5.8778 23.0725 5.82517 23.0374C5.77253 23.0198 5.73744 22.9847 5.70235 22.9496C5.66726 22.9145 5.63217 22.8619 5.61462 22.8268C5.59707 22.7742 5.57953 22.7215 5.57953 22.6689V21.8793C5.57953 21.8092 5.57953 21.7214 5.59707 21.6513C5.59707 21.5811 5.63217 21.4933 5.66726 21.4232C5.70235 21.353 5.73744 21.2828 5.77253 21.2126C5.80762 21.1424 5.86026 21.0898 5.9129 21.0372C5.96553 20.9845 6.03571 20.9319 6.08835 20.8968C6.15853 20.8442 6.22872 20.8091 6.2989 20.7915C6.36908 20.7564 6.43926 20.7389 6.52699 20.7213C6.59717 20.7213 6.6849 20.7038 6.75508 20.7038H18.7036C18.7738 20.7038 18.8615 20.7038 18.9317 20.7213C19.0019 20.7213 19.0896 20.7564 19.1598 20.7915C19.23 20.8266 19.3002 20.8617 19.3704 20.8968C19.4405 20.9494 19.4932 20.9845 19.5458 21.0372C19.5984 21.0898 19.6511 21.16 19.6862 21.2126C19.7213 21.2653 19.7739 21.353 19.7914 21.4232C19.809 21.4933 19.8441 21.5635 19.8616 21.6513C19.8616 21.7214 19.8792 21.8092 19.8792 21.8793V22.6689C19.8792 22.7215 19.8792 22.7742 19.8441 22.8268C19.8265 22.8794 19.7914 22.9145 19.7564 22.9496C19.7213 22.9847 19.6686 23.0198 19.6335 23.0374C19.5809 23.0549 19.5283 23.0725 19.4756 23.0725H19.5283ZM6.36908 22.2829H19.1247V21.8793C19.1247 21.8267 19.1247 21.7741 19.0896 21.7214C19.0721 21.6688 19.037 21.6337 19.0019 21.5986C18.9668 21.5635 18.9142 21.5284 18.8791 21.5109C18.8264 21.4933 18.7738 21.4758 18.7212 21.4758H6.77263C6.71999 21.4758 6.66736 21.4758 6.61472 21.5109C6.56208 21.5284 6.52699 21.5635 6.4919 21.5986C6.45681 21.6337 6.42172 21.6863 6.40417 21.7214C6.38663 21.7741 6.36908 21.8267 6.36908 21.8793V22.2829Z" fill="url(#paint2_linear_14_132)"/>
<path d="M15.5629 21.2126L15.2471 20.2827H10.2466L9.93079 21.2126L9.17633 20.967L9.57988 19.7739C9.61497 19.6861 9.65006 19.6335 9.72024 19.5809C9.79043 19.5282 9.86061 19.5107 9.94834 19.5107H15.5278C15.6156 19.5107 15.6857 19.5282 15.7559 19.5809C15.8261 19.6335 15.8787 19.7037 15.8963 19.7739L16.2998 20.967L15.5454 21.2126H15.5629Z" fill="url(#paint3_linear_14_132)"/>
<path d="M21.9144 15.1243H25.1077V15.9138H21.9144V15.1243Z" fill="url(#paint4_linear_14_132)"/>
<path d="M20.3178 15.1243H21.1074V15.9138H20.3178V15.1243Z" fill="url(#paint5_linear_14_132)"/>
<path d="M0.403564 15.1243H19.5282V15.9138H0.403564V15.1243Z" fill="url(#paint6_linear_14_132)"/>
<path d="M4.78998 5.1935H4.00043V2.01775C4.00043 1.96511 4.00043 1.91247 4.03552 1.85984C4.05306 1.8072 4.08816 1.77211 4.12325 1.73702C4.15834 1.70192 4.21097 1.66683 4.24607 1.64929C4.2987 1.63174 4.35134 1.6142 4.40398 1.6142H7.59727V2.40375H4.80752V5.1935H4.78998Z" fill="url(#paint7_linear_14_132)"/>
<path d="M7.56211 14.3347H4.36882C4.31618 14.3347 4.26355 14.3347 4.21091 14.2996C4.15827 14.2821 4.12318 14.247 4.08809 14.2119C4.053 14.1768 4.01791 14.1242 4.00036 14.0891C3.98282 14.0365 3.96527 13.9838 3.96527 13.9312V10.7554H4.75482V13.5452H7.54457V14.3347H7.56211Z" fill="url(#paint8_linear_14_132)"/>
<path d="M21.1249 14.3347H17.9316V13.5452H20.7213V10.7554H21.5109V13.9312C21.5109 13.9838 21.5109 14.0365 21.4758 14.0891C21.4582 14.1417 21.4232 14.1768 21.3881 14.2119C21.353 14.247 21.3003 14.2821 21.2652 14.2996C21.2126 14.3172 21.16 14.3347 21.1073 14.3347H21.1249Z" fill="url(#paint9_linear_14_132)"/>
<path d="M21.5109 5.1935H20.7213V2.40375H17.9316V1.6142H21.1249C21.1775 1.6142 21.2301 1.6142 21.2828 1.64929C21.3354 1.66683 21.3705 1.70192 21.4056 1.73702C21.4407 1.77211 21.4758 1.82474 21.4933 1.85984C21.5109 1.91247 21.5284 1.96511 21.5284 2.01775V5.1935H21.5109Z" fill="url(#paint10_linear_14_132)"/>
<path d="M12.7556 11.159C9.84306 11.159 7.01822 8.36925 6.8954 8.26397C6.86031 8.22888 6.82522 8.17625 6.80767 8.14116C6.79013 8.08852 6.77258 8.03588 6.77258 7.98325C6.77258 7.93061 6.77258 7.87797 6.80767 7.82533C6.82522 7.7727 6.86031 7.73761 6.8954 7.70252C7.01822 7.5797 9.84306 4.8075 12.7556 4.8075C15.6682 4.8075 18.493 7.59724 18.6158 7.70252C18.6509 7.73761 18.686 7.79024 18.7036 7.82533C18.7211 7.87797 18.7387 7.93061 18.7387 7.98325C18.7387 8.03588 18.7387 8.08852 18.7036 8.14116C18.686 8.19379 18.6509 8.22888 18.6158 8.26397C18.493 8.38679 15.6682 11.159 12.7556 11.159ZM7.75514 7.9657C8.52714 8.64998 10.6677 10.3519 12.7381 10.3519C14.8085 10.3519 16.949 8.64998 17.721 7.9657C16.949 7.28142 14.8085 5.5795 12.7381 5.5795C10.6677 5.5795 8.52714 7.28142 7.75514 7.9657Z" fill="url(#paint11_linear_14_132)"/>
<path d="M12.7557 9.96591C12.6328 9.96591 12.4925 9.96591 12.3697 9.93082C12.2468 9.89573 12.124 9.86064 12.0012 9.82555C11.8784 9.77291 11.7731 9.72028 11.6503 9.65009C11.545 9.57991 11.4397 9.49218 11.352 9.40446C11.2643 9.31673 11.1766 9.21146 11.1064 9.10618C11.0362 9.00091 10.966 8.87809 10.9134 8.75527C10.8607 8.63245 10.8256 8.50963 10.8081 8.38681C10.7906 8.26399 10.773 8.12363 10.773 8.00081C10.773 7.87799 10.773 7.73763 10.8081 7.61481C10.8432 7.49199 10.8783 7.36917 10.9134 7.24635C10.9485 7.12353 11.0186 7.01826 11.1064 6.89544C11.1766 6.79017 11.2643 6.68489 11.352 6.59716C11.4397 6.50944 11.545 6.42171 11.6503 6.35153C11.7556 6.28134 11.8784 6.21116 12.0012 6.17607C12.124 6.14098 12.2468 6.08834 12.3697 6.0708C12.4925 6.05325 12.6328 6.03571 12.7557 6.03571C12.8785 6.03571 13.0188 6.03571 13.1417 6.0708C13.2645 6.08834 13.3873 6.14098 13.5101 6.17607C13.6329 6.22871 13.7382 6.28134 13.861 6.35153C13.9839 6.42171 14.0716 6.50944 14.1593 6.59716C14.247 6.68489 14.3348 6.79017 14.4049 6.89544C14.4751 7.00071 14.5453 7.12353 14.5804 7.24635C14.633 7.36917 14.6681 7.49199 14.6857 7.61481C14.7032 7.73763 14.7208 7.87799 14.7208 8.00081C14.7208 8.12363 14.7208 8.26399 14.6857 8.38681C14.6506 8.50963 14.6155 8.63245 14.5804 8.75527C14.5453 8.87809 14.4751 8.98336 14.3874 9.10618C14.3172 9.21146 14.2295 9.31673 14.1418 9.40446C14.054 9.49218 13.9488 9.57991 13.8435 9.65009C13.7382 9.72028 13.6154 9.79046 13.4926 9.82555C13.3698 9.87819 13.2469 9.91328 13.1241 9.93082C13.0013 9.94837 12.8609 9.96591 12.7381 9.96591H12.7557ZM12.7557 6.79017C12.6855 6.79017 12.5978 6.79017 12.5276 6.80771C12.4574 6.80771 12.3697 6.8428 12.2995 6.87789C12.2293 6.91298 12.1591 6.94808 12.0889 6.98317C12.0187 7.0358 11.9661 7.07089 11.9135 7.12353C11.8608 7.17617 11.8082 7.24635 11.7731 7.29899C11.7205 7.36917 11.6854 7.43935 11.6678 7.50953C11.6503 7.57972 11.6152 7.6499 11.5977 7.73763C11.5977 7.80781 11.5801 7.89554 11.5801 7.96572C11.5801 8.0359 11.5801 8.12363 11.5977 8.19381C11.5977 8.26399 11.6327 8.35172 11.6678 8.4219C11.7029 8.49209 11.738 8.56227 11.7731 8.63245C11.8082 8.70263 11.8608 8.75527 11.9135 8.80791C11.9661 8.86054 12.0363 8.91318 12.0889 8.94827C12.1591 9.00091 12.2293 9.036 12.2995 9.05354C12.3697 9.08864 12.4398 9.10618 12.5276 9.12373C12.6153 9.14127 12.6855 9.14127 12.7557 9.14127C12.8258 9.14127 12.9136 9.14127 12.9838 9.12373C13.0539 9.12373 13.1417 9.08864 13.2118 9.05354C13.282 9.01845 13.3522 8.98336 13.4224 8.94827C13.4926 8.91318 13.5452 8.86054 13.5978 8.80791C13.6505 8.75527 13.7031 8.68509 13.7382 8.63245C13.7733 8.57981 13.8259 8.49209 13.8435 8.4219C13.8786 8.35172 13.8961 8.28154 13.9137 8.19381C13.9312 8.10608 13.9312 8.0359 13.9312 7.96572C13.9312 7.89554 13.9312 7.80781 13.9137 7.73763C13.8961 7.66744 13.8786 7.57972 13.8435 7.50953C13.8084 7.43935 13.7733 7.36917 13.7382 7.29899C13.7031 7.2288 13.6505 7.17617 13.5978 7.12353C13.5452 7.07089 13.475 7.01826 13.4224 6.98317C13.3522 6.94808 13.282 6.89544 13.2118 6.87789C13.1417 6.8428 13.0715 6.82526 12.9838 6.80771C12.9136 6.80771 12.8258 6.79017 12.7557 6.79017Z" fill="url(#paint12_linear_14_132)"/>
<path d="M13.1767 16.563H12.2994V17.4403H13.1767V16.563Z" fill="url(#paint13_linear_14_132)"/>
<mask id="mask0_14_132" style="mask-type:luminance" maskUnits="userSpaceOnUse" x="12" y="16" width="2" height="2">
<path d="M13.1767 16.563H12.2994V17.4403H13.1767V16.563Z" fill="white"/>
</mask>
<g mask="url(#mask0_14_132)">
<path d="M12.2994 16.563H13.1767V17.4403H12.2994V16.563Z" fill="url(#paint14_linear_14_132)"/>
</g>
</g>
<defs>
<linearGradient id="paint0_linear_14_132" x1="12.7556" y1="0.0526123" x2="12.7556" y2="19.1071" gradientUnits="userSpaceOnUse">
<stop stop-color="#FFA600"/>
<stop offset="1" stop-color="#C93400"/>
</linearGradient>
<linearGradient id="paint1_linear_14_132" x1="12.7556" y1="18.3351" x2="12.7556" y2="21.4933" gradientUnits="userSpaceOnUse">
<stop stop-color="#FFA600"/>
<stop offset="1" stop-color="#C93400"/>
</linearGradient>
<linearGradient id="paint2_linear_14_132" x1="12.7294" y1="20.7038" x2="12.7294" y2="23.0725" gradientUnits="userSpaceOnUse">
<stop stop-color="#FFA600"/>
<stop offset="1" stop-color="#C93400"/>
</linearGradient>
<linearGradient id="paint3_linear_14_132" x1="12.7381" y1="19.5107" x2="12.7381" y2="21.2126" gradientUnits="userSpaceOnUse">
<stop stop-color="#FFA600"/>
<stop offset="1" stop-color="#C93400"/>
</linearGradient>
<linearGradient id="paint4_linear_14_132" x1="23.5111" y1="15.1243" x2="23.5111" y2="15.9138" gradientUnits="userSpaceOnUse">
<stop stop-color="#FFA600"/>
<stop offset="1" stop-color="#C93400"/>
</linearGradient>
<linearGradient id="paint5_linear_14_132" x1="20.7126" y1="15.1243" x2="20.7126" y2="15.9138" gradientUnits="userSpaceOnUse">
<stop stop-color="#FFA600"/>
<stop offset="1" stop-color="#C93400"/>
</linearGradient>
<linearGradient id="paint6_linear_14_132" x1="9.96591" y1="15.1243" x2="9.96591" y2="15.9138" gradientUnits="userSpaceOnUse">
<stop stop-color="#FFA600"/>
<stop offset="1" stop-color="#C93400"/>
</linearGradient>
<linearGradient id="paint7_linear_14_132" x1="5.79885" y1="1.6142" x2="5.79885" y2="5.1935" gradientUnits="userSpaceOnUse">
<stop stop-color="#FFA600"/>
<stop offset="1" stop-color="#C93400"/>
</linearGradient>
<linearGradient id="paint8_linear_14_132" x1="5.76369" y1="10.7554" x2="5.76369" y2="14.3347" gradientUnits="userSpaceOnUse">
<stop stop-color="#FFA600"/>
<stop offset="1" stop-color="#C93400"/>
</linearGradient>
<linearGradient id="paint9_linear_14_132" x1="19.7212" y1="10.7554" x2="19.7212" y2="14.3347" gradientUnits="userSpaceOnUse">
<stop stop-color="#FFA600"/>
<stop offset="1" stop-color="#C93400"/>
</linearGradient>
<linearGradient id="paint10_linear_14_132" x1="19.73" y1="1.6142" x2="19.73" y2="5.1935" gradientUnits="userSpaceOnUse">
<stop stop-color="#FFA600"/>
<stop offset="1" stop-color="#C93400"/>
</linearGradient>
<linearGradient id="paint11_linear_14_132" x1="12.7556" y1="4.8075" x2="12.7556" y2="11.159" gradientUnits="userSpaceOnUse">
<stop stop-color="#FFA600"/>
<stop offset="1" stop-color="#C93400"/>
</linearGradient>
<linearGradient id="paint12_linear_14_132" x1="12.7469" y1="6.03571" x2="12.7469" y2="9.96591" gradientUnits="userSpaceOnUse">
<stop stop-color="#FFA600"/>
<stop offset="1" stop-color="#C93400"/>
</linearGradient>
<linearGradient id="paint13_linear_14_132" x1="12.7381" y1="16.563" x2="12.7381" y2="17.4403" gradientUnits="userSpaceOnUse">
<stop stop-color="#FFA600"/>
<stop offset="1" stop-color="#C93400"/>
</linearGradient>
<linearGradient id="paint14_linear_14_132" x1="12.7381" y1="16.563" x2="12.7381" y2="17.4403" gradientUnits="userSpaceOnUse">
<stop stop-color="#FFA600"/>
<stop offset="1" stop-color="#C93400"/>
</linearGradient>
<clipPath id="clip0_14_132">
<rect width="25.6165" height="23.3356" fill="white"/>
</clipPath>
</defs>
</svg>
