<svg width="24" height="20" viewBox="0 0 24 20" fill="none" xmlns="http://www.w3.org/2000/svg">
<path d="M23.4764 0.95724C23.4922 0.897217 23.4985 0.837194 23.4922 0.777171C23.4891 0.751898 23.5049 0.729785 23.4985 0.704512C23.4764 0.628693 23.4417 0.559193 23.3911 0.49917C23.3848 0.489693 23.388 0.480216 23.3817 0.473897C23.3722 0.461261 23.3564 0.461261 23.3469 0.451784C23.2648 0.363329 23.17 0.306465 23.0563 0.278033C23.0499 0.278033 23.0436 0.278033 23.0373 0.278033C23.0026 0.268556 22.9678 0.262238 22.9299 0.262238L0.629796 0.398079C0.50975 0.398079 0.4055 0.42967 0.304409 0.496011C0.206477 0.562352 0.133817 0.647648 0.0895898 0.758217C0.0422032 0.865626 0.0327259 0.979354 0.0548397 1.09624C0.0769534 1.20997 0.130658 1.31106 0.212795 1.39636L7.54191 8.85816L8.34116 18.5692C8.35064 18.6893 8.39487 18.7967 8.47069 18.8915C8.54651 18.9831 8.64128 19.0494 8.75817 19.0842C8.87505 19.1189 8.98878 19.1189 9.10251 19.0842C9.21624 19.0494 9.31417 18.9831 9.38683 18.8883L23.388 1.21313C23.4038 1.19417 23.4006 1.16574 23.4101 1.14363C23.4417 1.08676 23.4638 1.02358 23.4733 0.95724H23.4764ZM20.5132 1.45006L9.74381 7.08274L8.22428 7.87883L2.02296 1.56379L20.5132 1.45006ZM8.72657 8.93713L14.7763 5.77171L20.7533 2.6442L9.38999 16.9928L8.72657 8.94029V8.93713Z" fill="url(#paint0_linear_36_161)"/>
<defs>
<linearGradient id="paint0_linear_36_161" x1="11.7718" y1="0.262238" x2="11.7718" y2="19.1102" gradientUnits="userSpaceOnUse">
<stop stop-color="#FFA600"/>
<stop offset="1" stop-color="#C93400"/>
</linearGradient>
</defs>
</svg>
