<svg width="24" height="26" viewBox="0 0 24 26" fill="none" xmlns="http://www.w3.org/2000/svg">
<g clip-path="url(#clip0_32_69)">
<path d="M14.6588 4.4C14.6588 4.25883 14.5882 4.14118 14.4706 4.07059L11.0824 2.11765C10.8235 1.97647 10.5176 2.16471 10.5176 2.44706V6.35294C10.5176 6.6353 10.8235 6.82353 11.0824 6.68236L14.4706 4.72941C14.5882 4.65883 14.6588 4.54118 14.6588 4.4ZM11.2471 5.71765V3.10589L13.5059 4.4L11.2471 5.69412V5.71765Z" fill="url(#paint0_linear_32_69)"/>
<path d="M5.27059 9.12946C4.96471 9.12946 4.65882 9.22358 4.42353 9.38829C3.43529 8.70593 2.04706 9.38829 2.04706 10.6353C2.04706 11.8824 3.2 13.1059 4.25882 13.5765C4.35294 13.6236 4.47059 13.6236 4.56471 13.5765C5.64706 13.1059 6.77647 11.8118 6.77647 10.6353C6.77647 9.45887 6.09412 9.12946 5.27059 9.12946ZM4.42353 12.8236C3.64706 12.4001 2.82353 11.4118 2.82353 10.6353C2.82353 9.85887 3.69412 9.62358 4.14118 10.1412C4.30588 10.3059 4.56471 10.3059 4.70588 10.1412C5.15294 9.62358 6.02353 9.92946 6.02353 10.6353C6.02353 11.3412 5.2 12.4001 4.4 12.8236H4.42353Z" fill="url(#paint1_linear_32_69)"/>
<path d="M19.5765 15.5294C21.953 15.5294 23.8824 13.6 23.8824 11.2471C23.8824 8.89415 21.953 6.96474 19.5765 6.96474C17.2 6.96474 15.2706 8.89415 15.2706 11.2471C15.2706 13.6 15.6235 13.2 16.2118 13.9294L14.5647 15.5059C14.4941 15.5765 14.4471 15.6706 14.4471 15.7883V18C13.9294 17.7647 13.2706 17.6236 12.7765 17.5294L12.353 17.4353V8.70591C14.5412 8.51768 16.2588 6.68238 16.2588 4.42356C16.2588 2.16473 14.4 0.141205 12.0471 0.117676H11.953C9.60001 0.141205 7.69413 2.04709 7.69413 4.40003C7.69413 6.75297 9.41178 8.49415 11.6 8.68238V17.2706C10.9177 17.1765 10.4941 17.2706 9.5059 17.7412V15.7647C9.5059 15.6706 9.45884 15.553 9.38825 15.4824L7.74119 13.9059C8.32943 13.1765 8.68237 12.2353 8.68237 11.2236C8.68237 8.84709 6.75296 6.94121 4.37648 6.94121C2.04707 6.94121 0.117661 8.87062 0.117661 11.2471C0.117661 13.6236 2.04707 15.5294 4.42354 15.5294C6.80001 15.5294 6.49413 15.1294 7.24707 14.4706L8.77648 15.9294V18.1177C8.35296 18.3059 7.97648 18.4941 7.78825 18.5177C7.29413 18.6353 6.77648 18.6824 6.35296 18.7059C6.3059 18.3059 5.97648 18 5.55296 18H4.25884C3.81178 18 3.45884 18.353 3.45884 18.8V24.2589C3.45884 24.7059 3.81178 25.0589 4.25884 25.0589H5.55296C6.00001 25.0589 6.35296 24.7059 6.35296 24.2589V23.9765C7.74119 23.7412 9.1059 23.8824 10.6353 24.0236C11.2235 24.0706 11.8118 24.1412 12.4471 24.1647C13.6706 24.2118 16.8 22.353 19.6706 20.6118C20.0471 20.3765 20.3765 20.1883 20.6118 20.0471C21.3882 19.6 21.6706 18.5883 21.1765 17.8118C20.7059 17.0589 19.6941 16.8 18.9177 17.2471L15.5765 19.1765C15.5765 18.8706 15.4118 18.6353 15.2 18.4236V15.9059L16.7294 14.4471C17.4824 15.1059 18.4706 15.5059 19.553 15.5059L19.5765 15.5294ZM4.42354 14.7765C2.4706 14.7765 0.894131 13.2 0.894131 11.2471C0.894131 9.29415 2.49413 7.71768 4.42354 7.71768C6.35295 7.71768 7.95295 9.29415 7.95295 11.2471C7.95295 13.2 6.35295 14.7765 4.42354 14.7765ZM5.55296 24.3059H4.25884C4.25884 24.3059 4.21178 24.3059 4.21178 24.2589V18.8C4.21178 18.8 4.21178 18.753 4.25884 18.753H5.55296C5.55296 18.753 5.60001 18.753 5.60001 18.8V24.2589C5.60001 24.2589 5.60001 24.3059 5.55296 24.3059ZM8.4706 4.40003C8.4706 2.44709 10.0706 0.870617 12 0.870617C13.9294 0.870617 15.5294 2.44709 15.5294 4.40003C15.5294 6.35297 13.9294 7.92944 12 7.92944C10.0706 7.92944 8.4706 6.35297 8.4706 4.40003ZM19.2941 17.9294C19.9765 17.5294 20.8235 18.1412 20.6353 18.8706C20.5647 19.1059 20.4235 19.2941 20.2118 19.4118C19.9765 19.553 19.6471 19.7412 19.2706 19.9765C18.2824 20.5647 16.7765 21.4824 15.4353 22.1883C13.3882 23.2706 12.7059 23.4118 12.4706 23.4118C10.4471 23.2941 8.35296 22.9177 6.32943 23.2236V19.4589C6.80001 19.4353 7.36472 19.3883 7.92943 19.2471C8.25884 19.1765 8.96472 18.8471 9.64707 18.5177C11.0118 17.8589 11.153 17.9059 12.3059 18.1647C12.9412 18.3059 14.8 18.6589 14.8235 19.2706C14.8235 19.4118 14.8 19.5294 14.7294 19.6471C14.7294 19.6471 14.6824 19.6706 14.6588 19.6941C14.4941 19.8824 14.2118 20 13.953 19.9765L10.6588 19.7177C10.4471 19.7177 10.2588 19.8589 10.2588 20.0706C10.2588 20.2824 10.4 20.4706 10.6118 20.4706L13.9059 20.7294C13.953 20.7294 14 20.7294 14.0471 20.7294C14.4471 20.7294 14.8471 20.5647 15.153 20.3059L19.3177 17.9059L19.2941 17.9294ZM16.0471 11.2471C16.0471 9.29415 17.6471 7.71768 19.5765 7.71768C21.5059 7.71768 23.1059 9.29415 23.1059 11.2471C23.1059 13.2 21.5294 14.7765 19.5765 14.7765C17.6235 14.7765 16.0471 13.2 16.0471 11.2471Z" fill="url(#paint2_linear_32_69)"/>
<path d="M18 13.5059H20.4941C21.4824 13.5059 22.2588 12.7059 22.2588 11.7412C22.2588 10.7765 21.4588 9.97649 20.4941 9.97649H20.4V9.43532C20.4 8.89414 19.9529 8.44708 19.4118 8.44708C18.8706 8.44708 18.4235 8.89414 18.4235 9.43532V9.97649H18C17.7882 9.97649 17.6235 10.1412 17.6235 10.353V13.153C17.6235 13.3647 17.7882 13.5294 18 13.5294V13.5059ZM18.3765 10.7059H18.8C19.0118 10.7059 19.1765 10.5412 19.1765 10.3294V9.41179C19.1765 9.27061 19.2941 9.17649 19.4118 9.17649C19.5294 9.17649 19.6471 9.29414 19.6471 9.41179V10.3294C19.6471 10.5412 19.8118 10.7059 20.0235 10.7059H20.4941C21.0588 10.7059 21.5059 11.153 21.5059 11.7177C21.5059 12.2824 21.0588 12.7294 20.4941 12.7294H18.3765V10.7059Z" fill="url(#paint3_linear_32_69)"/>
</g>
<defs>
<linearGradient id="paint0_linear_32_69" x1="12.5882" y1="2.06964" x2="12.5882" y2="6.73036" gradientUnits="userSpaceOnUse">
<stop stop-color="#FFA600"/>
<stop offset="1" stop-color="#C93400"/>
</linearGradient>
<linearGradient id="paint1_linear_32_69" x1="4.41176" y1="9.11829" x2="4.41176" y2="13.6118" gradientUnits="userSpaceOnUse">
<stop stop-color="#FFA600"/>
<stop offset="1" stop-color="#C93400"/>
</linearGradient>
<linearGradient id="paint2_linear_32_69" x1="12" y1="0.117676" x2="12" y2="25.0589" gradientUnits="userSpaceOnUse">
<stop stop-color="#FFA600"/>
<stop offset="1" stop-color="#C93400"/>
</linearGradient>
<linearGradient id="paint3_linear_32_69" x1="19.9412" y1="8.44708" x2="19.9412" y2="13.5294" gradientUnits="userSpaceOnUse">
<stop stop-color="#FFA600"/>
<stop offset="1" stop-color="#C93400"/>
</linearGradient>
<clipPath id="clip0_32_69">
<rect width="24" height="25.1765" fill="white"/>
</clipPath>
</defs>
</svg>
