<svg width="39" height="40" viewBox="0 0 39 40" fill="none" xmlns="http://www.w3.org/2000/svg">
<path d="M19.5 39.7059C30.2696 39.7059 39 30.9754 39 20.2059C39 9.43632 30.2696 0.705872 19.5 0.705872C8.73045 0.705872 0 9.43632 0 20.2059C0 30.9754 8.73045 39.7059 19.5 39.7059Z" fill="url(#paint0_linear_133_40)"/>
<path fill-rule="evenodd" clip-rule="evenodd" d="M24.7818 16.6313C26.3823 17.765 28.3297 18.4453 30.4504 18.4453V14.3906C30.0503 14.3906 29.6501 14.3505 29.2633 14.2705V17.4716C27.1559 17.4716 25.1953 16.8047 23.5947 15.6577V23.9405C23.5947 28.0886 20.2336 31.4497 16.0855 31.4497C14.5383 31.4497 13.0978 30.9829 11.9107 30.1826C13.2712 31.5698 15.1785 32.4367 17.2859 32.4367C21.434 32.4367 24.7951 29.0756 24.7951 24.9275V16.6447L24.7818 16.6313ZM26.249 12.5366C25.4354 11.643 24.9018 10.4959 24.7818 9.2288V8.70862H23.6614C23.9415 10.3225 24.9152 11.7096 26.249 12.5499V12.5366ZM14.525 26.9815C14.0715 26.3813 13.8181 25.6477 13.8181 24.9008C13.8181 23.0068 15.3519 21.473 17.2592 21.473C17.6194 21.473 17.9661 21.5263 18.2996 21.633V17.485C17.8995 17.4316 17.5127 17.4049 17.1125 17.4183V20.646C16.7791 20.5393 16.4189 20.486 16.0722 20.486C14.1782 20.486 12.631 22.0198 12.631 23.9138C12.631 25.2609 13.4046 26.4213 14.525 26.9815Z" fill="#EE1D52"/>
<path fill-rule="evenodd" clip-rule="evenodd" d="M23.5814 15.6443C25.1819 16.778 27.1293 17.4582 29.25 17.4582V14.2572C28.0763 14.0037 27.0226 13.3902 26.249 12.5366C24.9018 11.6963 23.9415 10.3225 23.6614 8.69525H20.7004V24.9141C20.7004 26.8081 19.1532 28.342 17.2592 28.342C16.1388 28.342 15.1518 27.8085 14.525 26.9815C13.4046 26.4213 12.631 25.2609 12.631 23.9138C12.631 22.0198 14.1648 20.4859 16.0722 20.4859C16.4323 20.4859 16.7924 20.5393 17.1125 20.646V17.4182C13.0311 17.4983 9.76334 20.8327 9.76334 24.9275C9.76334 26.9682 10.5769 28.8221 11.9107 30.1693C13.1111 30.9695 14.5383 31.4364 16.0855 31.4364C20.2336 31.4364 23.5947 28.0752 23.5947 23.9271V15.6443H23.5814Z" fill="white"/>
<path fill-rule="evenodd" clip-rule="evenodd" d="M29.25 14.2572V13.3902C28.183 13.3902 27.1426 13.0968 26.249 12.5366C27.0492 13.4035 28.1029 14.0171 29.25 14.2572ZM23.6481 8.69526C23.6214 8.5352 23.5947 8.38848 23.5814 8.22843V7.70825H19.5V23.9271C19.5 25.8211 17.9528 27.355 16.0588 27.355C15.4986 27.355 14.9785 27.2216 14.5116 26.9948C15.1385 27.8218 16.1255 28.3553 17.2459 28.3553C19.1399 28.3553 20.6737 26.8215 20.6871 24.9275V8.69526H23.6481ZM17.1125 17.4182V16.4979C16.7657 16.4579 16.4323 16.4312 16.0855 16.4312C11.9374 16.4312 8.57626 19.7924 8.57626 23.9405C8.57626 26.5414 9.89672 28.8355 11.9107 30.1826C10.5903 28.8355 9.77667 26.9815 9.77667 24.9408C9.77667 20.8461 13.0578 17.5249 17.1259 17.4316L17.1125 17.4182Z" fill="#69C9D0"/>
<defs>
<linearGradient id="paint0_linear_133_40" x1="19.5" y1="0.705872" x2="19.5" y2="39.7059" gradientUnits="userSpaceOnUse">
<stop stop-color="#FFA600"/>
<stop offset="1" stop-color="#C93400"/>
</linearGradient>
</defs>
</svg>
