<svg width="34" height="22" viewBox="0 0 34 22" fill="none" xmlns="http://www.w3.org/2000/svg">
<g clip-path="url(#clip0_41_2)">
<mask id="mask0_41_2" style="mask-type:luminance" maskUnits="userSpaceOnUse" x="12" y="0" width="22" height="22">
<path d="M12 0H33.7965V21.7965H12V0Z" fill="white"/>
</mask>
<g mask="url(#mask0_41_2)">
<path d="M22.8983 0C16.8885 0 12 4.88853 12 10.8983C12 16.908 16.8885 21.7965 22.8983 21.7965C28.9069 21.7965 33.7965 16.908 33.7965 10.8983C33.7965 4.88853 28.9069 0 22.8983 0ZM22.8983 20.2213C17.7581 20.2213 13.5753 16.0385 13.5753 10.8983C13.5753 5.75808 17.7581 1.57525 22.8983 1.57525C28.0385 1.57525 32.2202 5.75808 32.2202 10.8983C32.2202 16.0385 28.0385 20.2213 22.8983 20.2213Z" fill="url(#paint0_linear_41_2)"/>
</g>
<path d="M26.0306 13.6033L23.6864 12.2776V5.77736C23.6864 5.34258 23.333 4.9892 22.8983 4.9892C22.4635 4.9892 22.1101 5.34258 22.1101 5.77736V12.7359C22.1101 12.7455 22.1122 12.7541 22.1133 12.7637C22.1144 12.7937 22.1176 12.8226 22.1219 12.8526C22.1251 12.8751 22.1283 12.8976 22.1337 12.9201C22.1401 12.9468 22.1487 12.9715 22.1583 12.9972C22.1658 13.0207 22.1733 13.0432 22.184 13.0646C22.1947 13.0893 22.2086 13.1118 22.2215 13.1343C22.2343 13.1557 22.2461 13.1749 22.259 13.1953C22.275 13.2167 22.2932 13.2371 22.3104 13.2574C22.3275 13.2745 22.3425 13.2927 22.3607 13.3099C22.3789 13.327 22.3982 13.342 22.4196 13.3581C22.441 13.3752 22.4624 13.3913 22.486 13.4052C22.4946 13.4105 22.501 13.418 22.5106 13.4223L25.2553 14.9751C25.3784 15.0447 25.5112 15.0768 25.6429 15.0768C25.9171 15.0768 26.1837 14.9333 26.3293 14.6774C26.5424 14.2972 26.4097 13.8175 26.0306 13.6033Z" fill="url(#paint1_linear_41_2)"/>
<mask id="mask1_41_2" style="mask-type:luminance" maskUnits="userSpaceOnUse" x="22" y="11" width="2" height="2">
<path d="M22.426 11.7292H23.3298V12.6331H22.426V11.7292Z" fill="white"/>
</mask>
<g mask="url(#mask1_41_2)">
<mask id="mask2_41_2" style="mask-type:luminance" maskUnits="userSpaceOnUse" x="22" y="11" width="2" height="2">
<path d="M22.8779 11.7292C22.6284 11.7292 22.426 11.9316 22.426 12.1812C22.426 12.4307 22.6284 12.6331 22.8779 12.6331C23.1274 12.6331 23.3298 12.4307 23.3298 12.1812C23.3298 11.9316 23.1274 11.7292 22.8779 11.7292Z" fill="white"/>
</mask>
<g mask="url(#mask2_41_2)">
<path d="M22.426 11.7292H23.3298V12.6331H22.426V11.7292Z" fill="url(#paint2_linear_41_2)"/>
</g>
</g>
</g>
<g clip-path="url(#clip1_41_2)">
<mask id="mask3_41_2" style="mask-type:luminance" maskUnits="userSpaceOnUse" x="0" y="3" width="11" height="15">
<path d="M11 3H0.345886V18H11V3Z" fill="white"/>
</mask>
<g mask="url(#mask3_41_2)">
<path d="M10.4705 17.9567H0.929526C0.831947 17.9567 0.73979 17.9314 0.65486 17.879C0.571738 17.8284 0.506685 17.7579 0.459703 17.6712C0.414528 17.5826 0.394651 17.4905 0.400072 17.3911C0.405493 17.2917 0.436212 17.2013 0.492229 17.12L5.05313 10.4991L0.494036 3.88004C0.438019 3.79873 0.4073 3.70838 0.401879 3.60899C0.396458 3.5096 0.416335 3.41745 0.46151 3.3289C0.506685 3.24036 0.571738 3.17169 0.656667 3.1211C0.741597 3.06869 0.831947 3.0434 0.931333 3.0434H10.4724C10.5428 3.0434 10.6097 3.05785 10.6747 3.08315C10.7398 3.11026 10.7976 3.1482 10.8464 3.1988C10.8952 3.2494 10.9349 3.30722 10.9602 3.37047C10.9874 3.43552 11 3.50418 11 3.57466V6.23819C11 6.30867 10.9874 6.37733 10.9602 6.44238C10.9331 6.50744 10.8952 6.56526 10.8464 6.61405C10.7976 6.66284 10.738 6.70259 10.6747 6.7297C10.6115 6.7568 10.5428 6.76945 10.4724 6.76945C10.4019 6.76945 10.335 6.7568 10.27 6.7297C10.2049 6.70259 10.1471 6.66465 10.0983 6.61405C10.0495 6.56345 10.0098 6.50563 9.98265 6.44238C9.95555 6.37733 9.9429 6.30867 9.9429 6.23819V4.10953H1.94145L6.13553 10.1974C6.19877 10.2877 6.22949 10.3889 6.22949 10.5009C6.22949 10.613 6.19696 10.7124 6.13553 10.8045L1.94145 16.8923H9.94109V14.7619C9.94109 14.6914 9.95374 14.6227 9.98085 14.5577C10.008 14.4926 10.0459 14.4348 10.0965 14.3842C10.1471 14.3354 10.2049 14.2957 10.2682 14.2685C10.3332 14.2414 10.4001 14.2288 10.4705 14.2288C10.541 14.2288 10.6079 14.2414 10.6729 14.2685C10.738 14.2957 10.7958 14.3336 10.8446 14.3842C10.8934 14.4348 10.9331 14.4926 10.9584 14.5577C10.9855 14.6227 10.9982 14.6914 10.9982 14.7619V17.4254C10.9982 17.4959 10.9855 17.5645 10.9584 17.6296C10.9313 17.6946 10.8934 17.7525 10.8446 17.8031C10.794 17.8537 10.7362 17.8916 10.6729 17.9187C10.6079 17.9458 10.541 17.9585 10.4705 17.9585V17.9567Z" fill="url(#paint3_linear_41_2)"/>
</g>
</g>
<defs>
<linearGradient id="paint0_linear_41_2" x1="22.8983" y1="0" x2="22.8983" y2="21.7965" gradientUnits="userSpaceOnUse">
<stop stop-color="#FFA600"/>
<stop offset="1" stop-color="#C93400"/>
</linearGradient>
<linearGradient id="paint1_linear_41_2" x1="24.2705" y1="4.9892" x2="24.2705" y2="15.0768" gradientUnits="userSpaceOnUse">
<stop stop-color="#FFA600"/>
<stop offset="1" stop-color="#C93400"/>
</linearGradient>
<linearGradient id="paint2_linear_41_2" x1="22.8779" y1="11.7292" x2="22.8779" y2="12.6331" gradientUnits="userSpaceOnUse">
<stop stop-color="#FFA600"/>
<stop offset="1" stop-color="#C93400"/>
</linearGradient>
<linearGradient id="paint3_linear_41_2" x1="5.6996" y1="3.0434" x2="5.6996" y2="17.9585" gradientUnits="userSpaceOnUse">
<stop stop-color="#FFA600"/>
<stop offset="1" stop-color="#C93400"/>
</linearGradient>
<clipPath id="clip0_41_2">
<rect width="22" height="22" fill="white" transform="translate(12)"/>
</clipPath>
<clipPath id="clip1_41_2">
<rect width="10.6541" height="15" fill="white" transform="translate(0.345886 3)"/>
</clipPath>
</defs>
</svg>
