<svg width="22" height="22" viewBox="0 0 22 22" fill="none" xmlns="http://www.w3.org/2000/svg">
<g clip-path="url(#clip0_14_51)">
<path fill-rule="evenodd" clip-rule="evenodd" d="M20.2935 0.0411224H1.48037C0.657944 0.0411224 0 0.699066 0 1.5215V20.2935C0 21.1159 0.657944 21.7738 1.48037 21.7738H20.2935C21.1159 21.7738 21.7944 21.1159 21.7944 20.2935V1.54206C21.7944 0.719627 21.1159 0.0411224 20.2935 0.0411224ZM1.48037 0.53458H20.2935C20.828 0.53458 21.2804 0.986917 21.2804 1.5215V2.79626H12.8299C12.7682 2.79626 12.7065 2.81682 12.6449 2.87851L11.9869 3.59813H9.88972L9.45794 2.89907C9.41682 2.81682 9.31402 2.7757 9.23178 2.7757H0.514019V1.5215C0.514019 0.986917 0.945794 0.53458 1.48037 0.53458ZM20.2935 21.2393H1.48037C0.945794 21.2393 0.514019 20.8075 0.514019 20.2729V3.26916H9.10841L9.51963 3.94766C9.56075 4.00935 9.66355 4.07103 9.74579 4.07103H12.1103H12.0897C12.1514 4.09159 12.2131 4.07103 12.2748 4.00935L12.9327 3.28972H21.2804V20.2729C21.2804 20.8075 20.828 21.2393 20.2935 21.2393Z" fill="url(#paint0_linear_14_51)"/>
<path fill-rule="evenodd" clip-rule="evenodd" d="M7.48409 3.26916C7.34017 3.26916 7.23737 3.1458 7.23737 3.02243V0.287851C7.23737 0.143926 7.36073 0.0411224 7.48409 0.0411224C7.60746 0.0411224 7.73082 0.164487 7.73082 0.287851V3.02243C7.73082 3.16636 7.60746 3.26916 7.48409 3.26916Z" fill="url(#paint1_linear_14_51)"/>
<path fill-rule="evenodd" clip-rule="evenodd" d="M2.28224 1.91214H2.24111C2.09719 1.91214 1.99438 1.78878 1.99438 1.66541C1.99438 1.54205 2.11775 1.41869 2.24111 1.41869H2.28224C2.42616 1.41869 2.52896 1.54205 2.52896 1.66541C2.52896 1.78878 2.4056 1.91214 2.28224 1.91214Z" fill="url(#paint2_linear_14_51)"/>
<path fill-rule="evenodd" clip-rule="evenodd" d="M3.88599 1.91214H3.84487C3.70095 1.91214 3.59814 1.78878 3.59814 1.66541C3.59814 1.54205 3.72151 1.41869 3.84487 1.41869H3.88599C4.02992 1.41869 4.13272 1.54205 4.13272 1.66541C4.13272 1.78878 4.00936 1.91214 3.88599 1.91214Z" fill="url(#paint3_linear_14_51)"/>
<path fill-rule="evenodd" clip-rule="evenodd" d="M5.48969 1.91214H5.44857C5.30465 1.91214 5.20184 1.78878 5.20184 1.66541C5.20184 1.54205 5.32521 1.41869 5.44857 1.41869H5.48969C5.63362 1.41869 5.73642 1.54205 5.73642 1.66541C5.73642 1.78878 5.61306 1.91214 5.48969 1.91214Z" fill="url(#paint4_linear_14_51)"/>
<path fill-rule="evenodd" clip-rule="evenodd" d="M18.4224 1.91214H10.486C10.3421 1.91214 10.2393 1.78878 10.2393 1.66541C10.2393 1.54205 10.3626 1.41869 10.486 1.41869H18.4224C18.5664 1.41869 18.6692 1.54205 18.6692 1.66541C18.6692 1.78878 18.5458 1.91214 18.4224 1.91214Z" fill="url(#paint5_linear_14_51)"/>
<path fill-rule="evenodd" clip-rule="evenodd" d="M15.2355 19.5327C13.0972 19.5327 11.3701 18.3608 11.3701 16.9215C11.3701 15.4822 12.0897 15.1122 13.3028 14.6598L13.6935 13.0972C13.6935 13.015 13.7757 12.9533 13.8785 12.9122C13.9608 12.9122 14.0636 12.9122 14.1253 12.9738L15.4206 14.3103C17.4972 14.372 19.101 15.5028 19.101 16.9215C19.101 18.3402 17.3739 19.5327 15.2355 19.5327ZM14.0636 13.6729L13.7552 14.9271C13.7552 15.0094 13.6729 15.071 13.5907 15.1122C12.5215 15.4822 11.8841 16.1813 11.8841 16.9421C11.8841 18.0935 13.3851 19.0393 15.2355 19.0393C17.086 19.0393 18.5869 18.0935 18.5869 16.9421C18.5869 15.7907 17.1066 14.8654 15.2972 14.8449C15.2355 14.8449 15.1533 14.8449 15.1122 14.7626L14.0636 13.6729Z" fill="url(#paint6_linear_14_51)"/>
<path fill-rule="evenodd" clip-rule="evenodd" d="M13.4261 17.2093H13.3439C13.2 17.2093 13.0972 17.086 13.0972 16.9626C13.0972 16.8392 13.2205 16.7159 13.3439 16.7159H13.4261C13.5701 16.7159 13.6729 16.8392 13.6729 16.9626C13.6729 17.086 13.5495 17.2093 13.4261 17.2093Z" fill="url(#paint7_linear_14_51)"/>
<path fill-rule="evenodd" clip-rule="evenodd" d="M14.6598 17.2093H14.5775C14.4336 17.2093 14.3308 17.086 14.3308 16.9626C14.3308 16.8392 14.4542 16.7159 14.5775 16.7159H14.6598C14.8037 16.7159 14.9065 16.8392 14.9065 16.9626C14.9065 17.086 14.7831 17.2093 14.6598 17.2093Z" fill="url(#paint8_linear_14_51)"/>
<path fill-rule="evenodd" clip-rule="evenodd" d="M15.8935 17.2093H15.8112C15.6673 17.2093 15.5645 17.086 15.5645 16.9626C15.5645 16.8392 15.6879 16.7159 15.8112 16.7159H15.8935C16.0374 16.7159 16.1402 16.8392 16.1402 16.9626C16.1402 17.086 16.0169 17.2093 15.8935 17.2093Z" fill="url(#paint9_linear_14_51)"/>
<path fill-rule="evenodd" clip-rule="evenodd" d="M17.1271 17.2093H17.0449C16.901 17.2093 16.7982 17.086 16.7982 16.9626C16.7982 16.8392 16.9215 16.7159 17.0449 16.7159H17.1271C17.2711 16.7159 17.3739 16.8392 17.3739 16.9626C17.3739 17.086 17.2505 17.2093 17.1271 17.2093Z" fill="url(#paint10_linear_14_51)"/>
<path fill-rule="evenodd" clip-rule="evenodd" d="M17.0243 4.72897C16.9215 4.33832 16.5719 4.07103 16.1813 4.07103C15.7906 4.07103 16.0374 4.09159 15.9551 4.09159C15.7289 4.15327 15.5233 4.2972 15.4205 4.50281C15.3177 4.70841 15.2972 4.8729 15.3177 5.07851C14.7626 6.04486 13.7962 7.11402 12.9944 7.25795L11.5551 7.6486C11.2467 7.71028 10.9794 7.91589 10.8149 8.20374C10.671 8.47103 10.6093 8.82056 10.6916 9.12897C10.8355 9.66355 11.3084 10.0336 11.8635 10.0336C12.4187 10.0336 12.028 10.0336 12.1103 10.0131L12.6654 12.0692C12.7065 12.2131 12.8093 12.2953 12.9532 12.2953C12.9944 12.2953 13.0355 12.2953 13.0355 12.2953L14.2691 11.9664C14.3514 11.9664 14.4336 11.9047 14.4542 11.8224C14.4542 11.7607 14.4953 11.6785 14.4542 11.5963L13.9196 9.58131C14.7215 9.45795 15.8934 9.86916 16.7364 10.3421C16.8803 10.671 17.2093 10.8972 17.5589 10.8972C17.6411 10.8972 17.7028 10.8972 17.785 10.8972C18.0112 10.8355 18.1962 10.6916 18.3196 10.486C18.4224 10.3009 18.4635 10.0542 18.4018 9.82804L17.0448 4.7701L17.0243 4.72897ZM11.2261 8.96449C11.185 8.8 11.2261 8.63552 11.2878 8.49159C11.3906 8.34767 11.514 8.24486 11.6785 8.20374L12.8299 7.89533L13.1589 9.10841L11.9869 9.41682C11.6579 9.51963 11.3084 9.29346 11.2261 8.96449ZM13.1589 11.6168L12.686 9.86916L13.3439 9.68411L13.8168 11.4318L13.1589 11.6168ZM13.7757 8.98505L13.4261 7.71028C14.2074 7.40187 14.9682 6.62056 15.5233 5.83925L16.5103 9.56075C15.6467 9.14953 14.5981 8.84112 13.7551 8.98505H13.7757ZM17.785 10.1365C17.7439 10.1981 17.6822 10.2598 17.6205 10.2598C17.456 10.3009 17.3121 10.2187 17.271 10.0748L15.914 5.01682C15.8934 4.93458 15.8934 4.85234 15.914 4.79066C15.9757 4.70841 16.0168 4.64673 16.099 4.64673H16.1607C16.2841 4.64673 16.4074 4.74953 16.428 4.8729L17.785 9.93084C17.8056 10.0131 17.8056 10.0748 17.785 10.1365Z" fill="url(#paint11_linear_14_51)"/>
<path fill-rule="evenodd" clip-rule="evenodd" d="M20.8485 6.53832C20.8074 6.37384 20.6429 6.2916 20.4784 6.31216L19.6355 6.53832C19.471 6.57945 19.3887 6.74393 19.4299 6.88786C19.471 7.03178 19.5943 7.11403 19.7177 7.11403H19.7794L20.6429 6.88786C20.7869 6.84674 20.8897 6.68225 20.8485 6.53832Z" fill="url(#paint12_linear_14_51)"/>
<path fill-rule="evenodd" clip-rule="evenodd" d="M20.3757 8.38878L19.6149 7.93645C19.471 7.8542 19.286 7.93645 19.2037 8.03925C19.142 8.18318 19.1832 8.36822 19.3271 8.45047L20.0878 8.88224C20.129 8.88224 20.1906 8.88224 20.2318 8.88224C20.3346 8.9028 20.4374 8.88224 20.499 8.75888C20.5607 8.63551 20.499 8.45047 20.3757 8.36822V8.38878Z" fill="url(#paint13_linear_14_51)"/>
<path fill-rule="evenodd" clip-rule="evenodd" d="M19.6149 5.07851C19.6972 4.93458 19.656 4.77009 19.5121 4.68785C19.3887 4.60561 19.2037 4.64673 19.1214 4.79066L18.6691 5.5514C18.5869 5.67477 18.628 5.85981 18.7719 5.94206C18.813 5.98318 18.8747 5.98318 18.9158 5.98318C19.0186 5.98318 19.1215 5.9215 19.1831 5.83925L19.6149 5.07851Z" fill="url(#paint14_linear_14_51)"/>
<mask id="mask0_14_51" style="mask-type:luminance" maskUnits="userSpaceOnUse" x="1" y="4" width="5" height="2">
<path d="M5.46915 4.15327H1.21307V5.18131H5.46915V4.15327Z" fill="white"/>
</mask>
<g mask="url(#mask0_14_51)">
<mask id="mask1_14_51" style="mask-type:luminance" maskUnits="userSpaceOnUse" x="1" y="4" width="4" height="1">
<path d="M1.64485 4.15327H4.39999C4.52335 4.15327 4.62616 4.17384 4.7084 4.23552C4.79064 4.2972 4.83177 4.33832 4.83177 4.42056C4.83177 4.50281 4.79064 4.54393 4.7084 4.60561C4.62616 4.64673 4.52335 4.68785 4.39999 4.68785H1.64485C1.52148 4.68785 1.41868 4.66729 1.33644 4.60561C1.2542 4.56449 1.21307 4.50281 1.21307 4.42056C1.21307 4.33832 1.2542 4.2972 1.33644 4.23552C1.41868 4.1944 1.52148 4.15327 1.64485 4.15327Z" fill="white"/>
</mask>
<g mask="url(#mask1_14_51)">
<path d="M1.21307 4.15327H4.83177V4.66729H1.21307V4.15327Z" fill="url(#paint15_linear_14_51)"/>
</g>
</g>
<path d="M10.9794 17.7028C10.9794 17.6617 10.9794 17.6206 10.9588 17.6V16.0991C10.9588 14.9477 10.1159 14.1252 8.5738 13.7551C8.24483 13.6729 7.87474 13.6112 7.5252 13.5495C7.44296 13.5495 7.38128 13.529 7.3196 13.5084V13.2C7.54576 13.0561 7.75137 12.871 7.93642 12.6654H9.00558V12.7065C9.5196 12.7065 9.93081 12.2748 9.93081 11.7813V11.3495C9.93081 11.1645 9.86913 11 9.78689 10.8561V9.37569C9.78689 7.87476 8.28595 6.72336 6.99062 6.72336H3.31025C3.16633 6.72336 3.04296 6.8056 3.0224 6.92897C2.50838 8.84112 3.1252 9.64298 3.47474 9.91027V10.3832H3.0224C2.50838 10.3832 2.09717 10.8149 2.09717 11.3084V11.7402C2.09717 12.2542 2.50838 12.6654 3.0224 12.6654H4.071C4.23548 12.8505 4.42053 13.0355 4.6467 13.1589V13.4878C4.58502 13.4878 4.50277 13.5084 4.44109 13.529C4.11212 13.5906 3.74203 13.6523 3.39249 13.7346C1.85044 14.1047 1.00745 14.9271 1.00745 16.0785V19.6355C1.00745 19.8 1.13081 19.9234 1.2953 19.9234H10.671C10.8355 19.9234 10.9588 19.8 10.9588 19.6355V17.785C10.9588 17.7439 10.9794 17.7234 10.9794 17.6822V17.7028ZM9.33455 11.7813C9.33455 11.9663 9.19062 12.1103 9.00558 12.1103H8.30651C8.45044 11.7813 8.53268 11.4318 8.53268 11.0617V11.0206H9.00558C9.19062 11.0206 9.33455 11.1645 9.33455 11.3495V11.7813ZM3.55698 7.31962H6.99062C7.97754 7.31962 9.19062 8.22429 9.19062 9.37569V10.4654C9.12894 10.4654 9.06726 10.4654 9.00558 10.4654H8.53268V9.78691C8.53268 9.62242 9.33455 9.49906 8.24483 9.49906C7.15511 9.49906 6.70277 8.5327 6.70277 8.51214C6.66165 8.40934 6.55885 8.3271 6.43548 8.3271C6.33268 8.30654 6.22988 8.36822 6.16819 8.47102C5.65418 9.35513 4.27661 9.4785 3.86539 9.49906C3.68034 9.35513 3.20745 8.84112 3.55698 7.34018V7.31962ZM3.0224 12.0692C2.83735 12.0692 2.69343 11.9252 2.69343 11.7402V11.3084C2.69343 11.1234 2.83735 10.9794 3.0224 10.9794H3.47474V11.0617C3.47474 11.4112 3.55698 11.7607 3.68034 12.0692H3.0224ZM4.50277 12.2953C4.50277 12.2131 4.44109 12.1514 4.37941 12.1103C4.1738 11.8019 4.071 11.4523 4.071 11.0617V10.7944C4.071 10.7533 4.071 10.7327 4.071 10.6916C4.071 10.6505 4.071 10.6093 4.071 10.5682V10.0336H4.05044C4.58502 9.99252 5.71586 9.80747 6.3738 9.1084C6.64109 9.45794 7.13455 9.93083 7.93642 10.0336V11.0617C7.93642 12.1103 7.05231 12.9944 6.00371 12.9944C4.95511 12.9944 4.87287 12.7271 4.52333 12.2953H4.50277ZM6.00371 13.5906C6.25044 13.5906 6.51773 13.5495 6.7439 13.4878V13.6523C6.7439 13.6729 6.7439 13.6935 6.7439 13.714C6.7439 13.7757 6.7439 13.8168 6.7439 13.8785V14.3514C6.7439 14.7626 6.39436 15.1121 5.98315 15.1121C5.57193 15.1121 5.2224 14.7626 5.2224 14.3514V13.8785C5.2224 13.8374 5.24296 13.7757 5.2224 13.714C5.2224 13.714 5.2224 13.6935 5.2224 13.6729V13.4673C5.46913 13.5495 5.73642 13.5906 6.00371 13.5906ZM3.51586 14.3514C3.84483 14.2692 4.19436 14.2075 4.5439 14.1458C4.58502 14.1458 4.60558 14.1458 4.6467 14.1252V14.3514C4.6467 15.0916 5.24296 15.6878 5.98315 15.7084C6.72333 15.7084 7.3196 15.0916 7.3196 14.3514V14.1252C7.36072 14.1252 7.38128 14.1252 7.4224 14.1252C7.77193 14.1869 8.12146 14.2486 8.45044 14.3308C9.33455 14.5364 10.3831 15.0093 10.3831 16.0991V17.3944H9.02614V16.4486C9.02614 16.3047 8.90277 16.1607 8.73829 16.1607C8.5738 16.1607 8.45044 16.2841 8.45044 16.4486V19.3682H3.53642V16.4486C3.53642 16.3047 3.41305 16.1607 3.24857 16.1607C3.08408 16.1607 2.96072 16.2841 2.96072 16.4486V17.3944H1.58315V16.0991C1.58315 15.0093 2.63175 14.5364 3.51586 14.3308V14.3514ZM1.58315 17.9906H2.96072V19.3888H1.58315V17.9906ZM9.02614 19.3888V17.9906H10.3831V19.3888H9.02614Z" fill="url(#paint16_linear_14_51)"/>
<path d="M6.06539 12.357C6.54232 12.357 6.92895 12.2189 6.92895 12.0486C6.92895 11.8783 6.54232 11.7402 6.06539 11.7402C5.58847 11.7402 5.20184 11.8783 5.20184 12.0486C5.20184 12.2189 5.58847 12.357 6.06539 12.357Z" fill="url(#paint17_linear_14_51)"/>
</g>
<defs>
<linearGradient id="paint0_linear_14_51" x1="10.8972" y1="0.0411224" x2="10.8972" y2="21.7738" gradientUnits="userSpaceOnUse">
<stop stop-color="#FFA600"/>
<stop offset="1" stop-color="#C93400"/>
</linearGradient>
<linearGradient id="paint1_linear_14_51" x1="7.48409" y1="0.0411224" x2="7.48409" y2="3.26916" gradientUnits="userSpaceOnUse">
<stop stop-color="#FFA600"/>
<stop offset="1" stop-color="#C93400"/>
</linearGradient>
<linearGradient id="paint2_linear_14_51" x1="2.26167" y1="1.41869" x2="2.26167" y2="1.91214" gradientUnits="userSpaceOnUse">
<stop stop-color="#FFA600"/>
<stop offset="1" stop-color="#C93400"/>
</linearGradient>
<linearGradient id="paint3_linear_14_51" x1="3.86543" y1="1.41869" x2="3.86543" y2="1.91214" gradientUnits="userSpaceOnUse">
<stop stop-color="#FFA600"/>
<stop offset="1" stop-color="#C93400"/>
</linearGradient>
<linearGradient id="paint4_linear_14_51" x1="5.46913" y1="1.41869" x2="5.46913" y2="1.91214" gradientUnits="userSpaceOnUse">
<stop stop-color="#FFA600"/>
<stop offset="1" stop-color="#C93400"/>
</linearGradient>
<linearGradient id="paint5_linear_14_51" x1="14.4542" y1="1.41869" x2="14.4542" y2="1.91214" gradientUnits="userSpaceOnUse">
<stop stop-color="#FFA600"/>
<stop offset="1" stop-color="#C93400"/>
</linearGradient>
<linearGradient id="paint6_linear_14_51" x1="15.2355" y1="12.9122" x2="15.2355" y2="19.5327" gradientUnits="userSpaceOnUse">
<stop stop-color="#FFA600"/>
<stop offset="1" stop-color="#C93400"/>
</linearGradient>
<linearGradient id="paint7_linear_14_51" x1="13.385" y1="16.7159" x2="13.385" y2="17.2093" gradientUnits="userSpaceOnUse">
<stop stop-color="#FFA600"/>
<stop offset="1" stop-color="#C93400"/>
</linearGradient>
<linearGradient id="paint8_linear_14_51" x1="14.6187" y1="16.7159" x2="14.6187" y2="17.2093" gradientUnits="userSpaceOnUse">
<stop stop-color="#FFA600"/>
<stop offset="1" stop-color="#C93400"/>
</linearGradient>
<linearGradient id="paint9_linear_14_51" x1="15.8524" y1="16.7159" x2="15.8524" y2="17.2093" gradientUnits="userSpaceOnUse">
<stop stop-color="#FFA600"/>
<stop offset="1" stop-color="#C93400"/>
</linearGradient>
<linearGradient id="paint10_linear_14_51" x1="17.086" y1="16.7159" x2="17.086" y2="17.2093" gradientUnits="userSpaceOnUse">
<stop stop-color="#FFA600"/>
<stop offset="1" stop-color="#C93400"/>
</linearGradient>
<linearGradient id="paint11_linear_14_51" x1="14.5428" y1="4.07103" x2="14.5428" y2="12.2953" gradientUnits="userSpaceOnUse">
<stop stop-color="#FFA600"/>
<stop offset="1" stop-color="#C93400"/>
</linearGradient>
<linearGradient id="paint12_linear_14_51" x1="20.1385" y1="6.30905" x2="20.1385" y2="7.11403" gradientUnits="userSpaceOnUse">
<stop stop-color="#FFA600"/>
<stop offset="1" stop-color="#C93400"/>
</linearGradient>
<linearGradient id="paint13_linear_14_51" x1="19.8496" y1="7.90288" x2="19.8496" y2="8.88919" gradientUnits="userSpaceOnUse">
<stop stop-color="#FFA600"/>
<stop offset="1" stop-color="#C93400"/>
</linearGradient>
<linearGradient id="paint14_linear_14_51" x1="19.142" y1="4.64594" x2="19.142" y2="5.98318" gradientUnits="userSpaceOnUse">
<stop stop-color="#FFA600"/>
<stop offset="1" stop-color="#C93400"/>
</linearGradient>
<linearGradient id="paint15_linear_14_51" x1="3.02242" y1="4.15327" x2="3.02242" y2="4.66729" gradientUnits="userSpaceOnUse">
<stop stop-color="#FFA600"/>
<stop offset="1" stop-color="#C93400"/>
</linearGradient>
<linearGradient id="paint16_linear_14_51" x1="5.99343" y1="6.72336" x2="5.99343" y2="19.9234" gradientUnits="userSpaceOnUse">
<stop stop-color="#FFA600"/>
<stop offset="1" stop-color="#C93400"/>
</linearGradient>
<linearGradient id="paint17_linear_14_51" x1="6.06539" y1="11.7402" x2="6.06539" y2="12.357" gradientUnits="userSpaceOnUse">
<stop stop-color="#FFA600"/>
<stop offset="1" stop-color="#C93400"/>
</linearGradient>
<clipPath id="clip0_14_51">
<rect width="22" height="22" fill="white"/>
</clipPath>
</defs>
</svg>
