<svg width="25" height="25" viewBox="0 0 25 25" fill="none" xmlns="http://www.w3.org/2000/svg">
<mask id="mask0_14_97" style="mask-type:luminance" maskUnits="userSpaceOnUse" x="0" y="0" width="25" height="24">
<path d="M0 0.111938H24.7688V23.9547H0V0.111938Z" fill="white"/>
</mask>
<g mask="url(#mask0_14_97)">
<path d="M2.00181 2.25003V2.21596C2.00181 1.99692 2.17948 1.81925 2.39852 1.81925C2.61756 1.81925 2.79645 1.99692 2.79645 2.21596V2.25003C2.79645 2.46786 2.61756 2.64553 2.39852 2.64553C2.17948 2.64553 2.00181 2.46786 2.00181 2.25003ZM4.12165 2.61145C4.34069 2.61145 4.51836 2.43378 4.51836 2.21474V2.18067C4.51836 1.96284 4.34069 1.78518 4.12165 1.78518C3.90139 1.78518 3.72373 1.96284 3.72373 2.18067V2.21474C3.72373 2.43378 3.90139 2.61145 4.12165 2.61145ZM5.84357 2.61145C6.06383 2.61145 6.24149 2.43378 6.24149 2.21474V2.18067C6.24149 1.96284 6.06383 1.78518 5.84357 1.78518C5.62453 1.78518 5.44686 1.96284 5.44686 2.18067V2.21474C5.44686 2.43378 5.62453 2.61145 5.84357 2.61145ZM7.9488 9.03547C7.74071 8.96611 7.5168 9.07806 7.44744 9.28372L6.70513 11.4887L5.96282 9.28493C5.92388 9.17176 5.83505 9.07684 5.71336 9.03547C5.50527 8.96732 5.28014 9.07806 5.212 9.28493L4.46969 11.49L3.72738 9.28493C3.65801 9.07806 3.43289 8.96611 3.22601 9.03547C3.01914 9.10483 2.90597 9.32874 2.97533 9.53561L4.09366 12.8565C4.16303 13.0634 4.38815 13.1754 4.59503 13.106C4.71793 13.0646 4.80677 12.9697 4.84449 12.8565L5.5868 10.6515L6.32911 12.8565C6.39847 13.0634 6.6236 13.1754 6.83047 13.106C6.95338 13.0646 7.04221 12.9697 7.08115 12.8565L8.19827 9.53561C8.26763 9.32874 8.15568 9.10483 7.9488 9.03547ZM13.6305 9.03547C13.4236 8.96611 13.1985 9.07806 13.1291 9.28372L12.3868 11.4887L11.6445 9.28372C11.6068 9.17054 11.518 9.07563 11.3951 9.03547C11.1882 8.96611 10.9631 9.07806 10.8937 9.28372L10.1514 11.4887L9.40908 9.28372C9.33972 9.07684 9.11581 8.96489 8.90772 9.03547C8.70085 9.10361 8.58889 9.32874 8.65826 9.5344L9.77659 12.8553C9.84595 13.0634 10.0711 13.1741 10.278 13.1048C10.4009 13.0646 10.4897 12.9697 10.5274 12.8553L11.2697 10.6515L12.012 12.8553C12.0814 13.0634 12.3065 13.1741 12.5134 13.1048C12.6363 13.0646 12.7251 12.9697 12.7629 12.8553L13.8812 9.5344C13.9506 9.32874 13.8374 9.10483 13.6305 9.03547ZM15.9597 13.106C16.0826 13.0646 16.1714 12.9697 16.2091 12.8565L16.9514 10.6515L17.6937 12.8565C17.7631 13.0634 17.9882 13.1754 18.1951 13.106C18.318 13.0646 18.4068 12.9697 18.4446 12.8565L19.5629 9.53561C19.6323 9.32874 19.5203 9.10483 19.3134 9.03547C19.1053 8.96732 18.8814 9.07806 18.8121 9.28493L18.0698 11.49L17.3275 9.28493C17.2885 9.17176 17.1997 9.07684 17.0768 9.03547C16.8699 8.96732 16.6448 9.07806 16.5766 9.28493L15.8343 11.49L15.092 9.28493C15.0226 9.07806 14.7975 8.96611 14.5906 9.03547C14.3826 9.10483 14.2706 9.32874 14.34 9.53561L15.4583 12.8565C15.5277 13.0634 15.7528 13.1741 15.9597 13.106ZM24.6106 21.8056L22.61 23.8013C22.4543 23.9559 22.2036 23.9559 22.0478 23.8013L20.0253 21.7849L18.4446 23.3608C18.29 23.5154 18.0381 23.5154 17.8836 23.3608C17.8349 23.3121 17.8008 23.2537 17.7826 23.1929L16.5949 19.2806H0.401588C0.182547 19.2806 0.00366211 19.1029 0.00366211 18.8851V3.94396V3.94274V0.508648C0.00366211 0.289606 0.182547 0.111938 0.401588 0.111938H22.1379C22.3569 0.111938 22.5346 0.289606 22.5346 0.508648V16.551L24.0034 16.994C24.2139 17.0573 24.3319 17.2788 24.2687 17.4881C24.248 17.555 24.2115 17.6122 24.1652 17.6584L22.5881 19.2294L24.6106 21.2458C24.7664 21.4004 24.7664 21.6511 24.6106 21.8056ZM0.799515 0.905357V3.54725H21.7399V0.905357H0.799515ZM16.3539 18.4871L15.2964 15.008C15.2332 14.7987 15.3524 14.5772 15.5617 14.514C15.6396 14.4908 15.7187 14.492 15.7917 14.514L21.7399 16.3101V4.33945H0.799515V18.4883H16.3539V18.4871ZM23.7685 21.5257L21.746 19.5093C21.5903 19.3548 21.5903 19.1041 21.746 18.9496L23.1382 17.5611L22.0235 17.224C22.021 17.224 22.0186 17.2228 22.0162 17.2216L16.2724 15.4875L17.2678 18.7646C17.269 18.7658 17.269 18.767 17.269 18.7682L18.3521 22.3325L19.7454 20.9441C19.9 20.7895 20.1519 20.7895 20.3064 20.9441L22.3289 22.9605L23.7685 21.5257Z" fill="url(#paint0_linear_14_97)"/>
</g>
<mask id="mask1_14_97" style="mask-type:luminance" maskUnits="userSpaceOnUse" x="19" y="12" width="2" height="1">
<path d="M19.4448 12.0461H20.2078V12.8103H19.4448V12.0461Z" fill="white"/>
</mask>
<g mask="url(#mask1_14_97)">
<mask id="mask2_14_97" style="mask-type:luminance" maskUnits="userSpaceOnUse" x="19" y="12" width="2" height="1">
<path d="M19.8269 12.0461C19.6152 12.0461 19.4448 12.2177 19.4448 12.4282C19.4448 12.6399 19.6152 12.8103 19.8269 12.8103C20.0375 12.8103 20.2078 12.6399 20.2078 12.4282C20.2078 12.2177 20.0375 12.0461 19.8269 12.0461Z" fill="white"/>
</mask>
<g mask="url(#mask2_14_97)">
<path d="M19.4448 12.0461H20.2078V12.8103H19.4448V12.0461Z" fill="url(#paint1_linear_14_97)"/>
</g>
</g>
<defs>
<linearGradient id="paint0_linear_14_97" x1="12.3655" y1="0.111938" x2="12.3655" y2="23.9172" gradientUnits="userSpaceOnUse">
<stop stop-color="#FFA600"/>
<stop offset="1" stop-color="#C93400"/>
</linearGradient>
<linearGradient id="paint1_linear_14_97" x1="19.8263" y1="12.0461" x2="19.8263" y2="12.8103" gradientUnits="userSpaceOnUse">
<stop stop-color="#FFA600"/>
<stop offset="1" stop-color="#C93400"/>
</linearGradient>
</defs>
</svg>
