<svg width="27" height="24" viewBox="0 0 27 24" fill="none" xmlns="http://www.w3.org/2000/svg">
<g clip-path="url(#clip0_14_269)">
<path d="M15.45 15.991H11.3438C11.0813 15.991 10.875 16.1972 10.875 16.4597C10.875 16.7222 11.0813 16.9285 11.3438 16.9285H15.45C15.7125 16.9285 15.9188 16.7222 15.9188 16.4597C15.9188 16.1972 15.7125 15.991 15.45 15.991Z" fill="url(#paint0_linear_14_269)"/>
<path d="M26.6625 8.77223V3.70973C26.6625 2.09723 25.3312 0.784729 23.7187 0.784729H3.07498C1.44373 0.784729 0.131226 2.09723 0.131226 3.70973V15.5785C0.131226 17.191 1.46248 18.5222 3.07498 18.5222H9.01873V20.2472H7.66873C7.40623 20.2472 7.19998 20.4535 7.19998 20.716V22.2535C7.19998 22.516 7.40623 22.7222 7.66873 22.7222H19.1437C19.1437 22.7222 19.1812 22.7222 19.2 22.7222H24.525C25.8187 22.7222 26.8687 21.6722 26.8687 20.3785V9.74723C26.8687 9.39098 26.7937 9.07223 26.6437 8.77223H26.6625ZM25.95 9.70973H17.775C17.8125 8.95973 18.4312 8.34098 19.2 8.34098H24.525C25.2937 8.34098 25.9125 8.94098 25.95 9.70973ZM16.8375 9.74723V14.266H3.26248V3.85973H23.5125V7.42223H19.2C17.9062 7.42223 16.8562 8.47223 16.8562 9.76598L16.8375 9.74723ZM3.07498 17.6035C1.96873 17.6035 1.04998 16.7035 1.04998 15.5972V3.70973C1.04998 2.60348 1.94998 1.70348 3.07498 1.70348H23.7187C24.825 1.70348 25.7437 2.60348 25.7437 3.70973V7.74098C25.3875 7.53473 24.975 7.40348 24.5437 7.40348H24.4687V3.39098C24.4687 3.12848 24.2625 2.92223 24 2.92223H2.79373C2.53123 2.92223 2.32498 3.12848 2.32498 3.39098V14.716C2.32498 14.9785 2.53123 15.1847 2.79373 15.1847H16.8375V17.6035H3.07498ZM8.11873 21.8035V21.1847H13.3875C13.65 21.1847 13.8562 20.9785 13.8562 20.716C13.8562 20.4535 13.65 20.2472 13.3875 20.2472H9.93748V18.5222H16.8375V20.2285H14.85V21.166H16.9687C17.0437 21.391 17.175 21.616 17.3062 21.8035H8.09998H8.11873ZM25.95 19.516H22.1437C21.8812 19.516 21.675 19.7222 21.675 19.9847C21.675 20.2472 21.8812 20.4535 22.1437 20.4535H25.95C25.9125 21.2035 25.2937 21.8035 24.525 21.8035H19.2C18.4312 21.8035 17.8125 21.2035 17.775 20.4535H19.4812C19.7437 20.4535 19.95 20.2472 19.95 19.9847C19.95 19.7222 19.7437 19.516 19.4812 19.516H17.775V10.6285H25.95V19.516Z" fill="url(#paint1_linear_14_269)"/>
<path d="M23.0437 8.64098H20.6625C20.4 8.64098 20.1937 8.84723 20.1937 9.10973C20.1937 9.37223 20.4 9.57848 20.6625 9.57848H23.0437C23.3062 9.57848 23.5125 9.37223 23.5125 9.10973C23.5125 8.84723 23.3062 8.64098 23.0437 8.64098Z" fill="url(#paint2_linear_14_269)"/>
</g>
<defs>
<linearGradient id="paint0_linear_14_269" x1="13.3969" y1="15.991" x2="13.3969" y2="16.9285" gradientUnits="userSpaceOnUse">
<stop stop-color="#FFA600"/>
<stop offset="1" stop-color="#C93400"/>
</linearGradient>
<linearGradient id="paint1_linear_14_269" x1="13.5" y1="0.784729" x2="13.5" y2="22.7222" gradientUnits="userSpaceOnUse">
<stop stop-color="#FFA600"/>
<stop offset="1" stop-color="#C93400"/>
</linearGradient>
<linearGradient id="paint2_linear_14_269" x1="21.8531" y1="8.64098" x2="21.8531" y2="9.57848" gradientUnits="userSpaceOnUse">
<stop stop-color="#FFA600"/>
<stop offset="1" stop-color="#C93400"/>
</linearGradient>
<clipPath id="clip0_14_269">
<rect width="27" height="22.3125" fill="white" transform="translate(0 0.784729)"/>
</clipPath>
</defs>
</svg>
