<svg width="39" height="40" viewBox="0 0 39 40" fill="none" xmlns="http://www.w3.org/2000/svg">
<path d="M19.5 39.7059C30.2696 39.7059 39 30.9754 39 20.2059C39 9.43632 30.2696 0.705872 19.5 0.705872C8.73045 0.705872 0 9.43632 0 20.2059C0 30.9754 8.73045 39.7059 19.5 39.7059Z" fill="url(#paint0_linear_133_41)"/>
<path d="M29.9436 17.3783C29.9436 14.7907 27.8495 12.6967 25.262 12.6967H13.2845C10.697 12.6967 8.60294 14.7907 8.60294 17.3783V22.9535C8.60294 25.541 10.697 27.6351 13.2845 27.6351H25.262C27.8495 27.6351 29.9436 25.541 29.9436 22.9535V17.3783ZM22.9012 20.5793L17.526 23.2336C17.3126 23.3536 16.6057 23.1936 16.6057 22.9535V17.4983C16.6057 17.2582 17.3259 17.0982 17.5393 17.2182L22.6744 20.0192C22.8878 20.1392 23.1146 20.4593 22.9012 20.566V20.5793Z" fill="white"/>
<defs>
<linearGradient id="paint0_linear_133_41" x1="19.5" y1="0.705872" x2="19.5" y2="39.7059" gradientUnits="userSpaceOnUse">
<stop stop-color="#FFA600"/>
<stop offset="1" stop-color="#C93400"/>
</linearGradient>
</defs>
</svg>
